<?xml version="1.0" standalone="no"?>
<!DOCTYPE svg PUBLIC "-//W3C//DTD SVG 1.1//EN" "http://www.w3.org/Graphics/SVG/1.1/DTD/svg11.dtd" >
<svg xmlns="http://www.w3.org/2000/svg">
<metadata>
Created by FontForge 20120731 at Fri Jul  8 14:55:39 2016
 By admin
</metadata>
<defs>
<font id="iconfont" horiz-adv-x="1024" >
  <font-face 
    font-family="iconfont"
    font-weight="500"
    font-stretch="normal"
    units-per-em="1024"
    panose-1="2 0 6 3 0 0 0 0 0 0"
    ascent="896"
    descent="-128"
    x-height="792"
    bbox="0 -213 2390.55 896"
    underline-thickness="50"
    underline-position="-100"
    unicode-range="U+0078-E8BF"
  />
<missing-glyph horiz-adv-x="374" 
d="M34 0v682h272v-682h-272zM68 34h204v614h-204v-614z" />
    <glyph glyph-name=".notdef" horiz-adv-x="374" 
d="M34 0v682h272v-682h-272zM68 34h204v614h-204v-614z" />
    <glyph glyph-name=".null" horiz-adv-x="0" 
 />
    <glyph glyph-name="nonmarkingreturn" horiz-adv-x="341" 
 />
    <glyph glyph-name="x" unicode="x" horiz-adv-x="1001" 
d="M281 543q-27 -1 -53 -1h-83q-18 0 -36.5 -6t-32.5 -18.5t-23 -32t-9 -45.5v-76h912v41q0 16 -0.5 30t-0.5 18q0 13 -5 29t-17 29.5t-31.5 22.5t-49.5 9h-133v-97h-438v97zM955 310v-52q0 -23 0.5 -52t0.5 -58t-10.5 -47.5t-26 -30t-33 -16t-31.5 -4.5q-14 -1 -29.5 -0.5
t-29.5 0.5h-32l-45 128h-439l-44 -128h-29h-34q-20 0 -45 1q-25 0 -41 9.5t-25.5 23t-13.5 29.5t-4 30v167h911zM163 247q-12 0 -21 -8.5t-9 -21.5t9 -21.5t21 -8.5q13 0 22 8.5t9 21.5t-9 21.5t-22 8.5zM316 123q-8 -26 -14 -48q-5 -19 -10.5 -37t-7.5 -25t-3 -15t1 -14.5
t9.5 -10.5t21.5 -4h37h67h81h80h64h36q23 0 34 12t2 38q-5 13 -9.5 30.5t-9.5 34.5q-5 19 -11 39h-368zM336 498v228q0 11 2.5 23t10 21.5t20.5 15.5t34 6h188q31 0 51.5 -14.5t20.5 -52.5v-227h-327z" />
    <glyph glyph-name="uni3433" unicode="&#x3433;" horiz-adv-x="1000" 
d="M676 471q16 0 34 -2q-23 106 -123.5 176t-229.5 70q-95 0 -175.5 -39.5t-127.5 -108t-47 -150.5q0 -138 140 -236l-35 -106l122 62q89 -18 123 -18q15 0 33 2q-11 37 -11 73q0 115 86.5 196t210.5 81zM485.5 573q22.5 0 38.5 -16t16 -38.5t-16 -38t-38.5 -15.5t-38 15.5
t-15.5 38t15.5 38.5t38 16zM240.5 464q-22.5 0 -38 15.5t-15.5 38t15.5 38.5t38 16t38.5 -16t16 -38.5t-16 -38t-38.5 -15.5zM994 197q0 68 -41.5 127t-110 93t-146.5 34q-124 0 -211 -74.5t-87 -179.5t87 -179.5t211 -74.5q35 0 105 18l96 -53l-26 87q123 92 123 202z
M605 236q-16 0 -27.5 11.5t-11.5 27.5t11.5 27t27.5 11t27 -11t11 -27t-11 -27.5t-27 -11.5zM797 234q-16 0 -27 11.5t-11 27.5t11 27t27 11t27.5 -11t11.5 -27t-11.5 -27.5t-27.5 -11.5z" />
    <glyph glyph-name="uniE600" unicode="&#xe600;" 
d="M819 589q0 82 -40 152.5t-111 112.5t-156 42t-156 -42t-111 -112.5t-40 -152.5q0 -117 78 -204.5t197 -96.5v-416h64v128h160v64h-160v64h160v64h-160v96q116 10 195.5 96t79.5 205zM262 589q0 102 72.5 175.5t177.5 73.5t180.5 -77t75.5 -179q0 -101 -75.5 -175
t-180.5 -74q-104 0 -177 76.5t-73 179.5z" />
    <glyph glyph-name="uniE601" unicode="&#xe601;" 
d="M515.5 743q73.5 0 139.5 -28q65 -27 114.5 -77t76.5 -114q29 -67 29 -140t-29 -140q-27 -64 -76.5 -114t-114.5 -77q-66 -28 -139.5 -28t-139.5 28q-65 27 -114.5 77t-77.5 114q-28 67 -28 140t28 140q28 64 77.5 114t114.5 77q66 28 139.5 28zM515 770
q-104 0 -193 -51.5t-140.5 -140.5t-51.5 -194t51.5 -194t140.5 -140.5t193.5 -51.5t193.5 51.5t140.5 140.5t51.5 194t-51.5 194t-140.5 140.5t-194 51.5zM369 162h34v28h212v-27h34v146h-280v-147zM492 482q-65 -77 -205 -128q11 -14 20 -31q53 22 97 48v-25h210v26
q43 -24 94 -42q9 15 21 34q-133 37 -205 118h-32zM615 221h-212v57h212v-57zM291 465q13 -12 25 -25q36 37 63 82h143v30h-127q11 22 20 45h-38q-30 -77 -86 -132zM513 496q15 -11 29 -23q17 23 31 49h151v30h-137q9 21 16 45h-38q-14 -54 -52 -101zM609 375h-198
q56 34 98 76q42 -43 100 -76zM662 461q-18 27 -42 55l-27 -17q23 -28 40 -56zM453 467q-17 24 -38 49l-25 -15q21 -27 35 -53z" />
    <glyph glyph-name="uniE602" unicode="&#xe602;" 
d="M286 164q100 -82 237 -82t237 82q166 -74 166 -260h-803q0 186 163 260zM761 184q-100 -92 -237 -92t-237 91q-87 -43 -136 -117.5t-49 -173.5h846q0 99 -50 173.5t-137 118.5zM249 307v215h-9q37 80 113.5 129.5t170 49.5t170 -49.5t113.5 -129.5h-9v-215q46 0 78 31.5
t32 75.5q0 30 -15 55t-41 39q-36 102 -126 165.5t-202.5 63.5t-202.5 -63.5t-126 -165.5q-25 -14 -40.5 -39t-15.5 -54q0 -45 32 -76.5t78 -31.5zM523.5 178q-92.5 0 -158 64t-65.5 154.5t65.5 154.5t158 64t158 -64t65.5 -154.5t-65.5 -154.5t-158 -64zM523.5 629
q-98.5 0 -168 -68t-69.5 -164.5t69.5 -165t168 -68.5t168.5 68.5t69.5 165t-70 164.5t-168 68z" />
    <glyph glyph-name="uniE603" unicode="&#xe603;" horiz-adv-x="1068" 
d="M221 -183l65 349l-257 244l351 46l153 320l153 -320l351 -46l-257 -244l65 -349l-312 169zM533 29l260 -140l-54 290l214 204l-293 38l-127 267l-127 -267l-293 -38l214 -204l-54 -290zM533 29z" />
    <glyph glyph-name="uniE605" unicode="&#xe605;" 
d="M512 893q-103 0 -197 -40.5t-162 -108.5t-108 -162t-40 -197t40 -197t108 -162t162 -108.5t197.5 -40.5t197.5 40.5t162 108.5t108 162t40 197t-40 197t-108 162t-162 108.5t-198 40.5v0zM512 -69q-93 0 -177 36t-145 96.5t-97 145t-36 177t36 177t97 145t145 97
t176.5 36.5t177 -36.5t145.5 -97t97 -145t36 -177t-36 -177t-97 -145t-145.5 -96.5t-176.5 -36v0zM486 338h36v23h170v-23h37v251h-243v-251zM293 245q37 52 63 124v-214h35v214q29 -30 54 -62l28 25q-33 36 -63 65l-19 -17v67h72v34h-72v79q41 4 70 7l-9 36
q-73 -10 -171 -15q5 -18 7 -35q36 2 68 4v-76h-77v-34h72q-30 -93 -75 -161q9 -20 17 -41v0zM692 394h-170v162h170v-162zM436 189q16 -14 27 -27q51 54 105 123l-31 22q-43 -59 -101 -118v0zM725 167l33 25q-47 63 -92 113l-29 -21q45 -55 88 -117v0z" />
    <glyph glyph-name="uniE607" unicode="&#xe607;" 
d="M735 7q-8 1 -13 16t-5.5 24t-0.5 14q6 6 15.5 17.5t28 45t23.5 65.5q16 0 27 20.5t10 46.5t-16 39q0 1 1.5 18t2 30.5t-1 36t-7 40.5t-17.5 38t-29.5 33t-46.5 22t-66 9t-66 -9t-46.5 -22t-29.5 -33t-17.5 -38t-7 -40.5t-1 -36t2 -30.5t1.5 -18q-15 -13 -16 -39t10 -46.5
t27 -20.5q3 -20 11 -41t17.5 -36t18.5 -26.5t14 -17.5l6 -7q0 -51 -19 -54q-25 -4 -71 -23.5t-96 -48t-86 -69t-36 -78.5h768q0 38 -36 78.5t-86 69t-96 48t-71 23.5zM344 -11q69 43 142 68q-31 43 -45 89q-24 19 -36 52q-12 35 -8 70q2 25 13 45q-12 133 53 205
q35 39 87 55q-13 141 -166 141q-37 0 -66 -9t-46.5 -22t-29.5 -33t-17.5 -38t-7 -40.5t-1 -36t2 -30.5t1.5 -18q-15 -13 -16 -39t10 -46.5t27 -20.5q5 -32 22.5 -64t30.5 -48t14 -16q0 -51 -19 -54q-25 -4 -71 -23.5t-96 -48t-86 -69t-36 -78.5h330q8 5 14 9z" />
    <glyph glyph-name="uniE608" unicode="&#xe608;" 
d="M338 559q-14 22 -10 34q33 6 55.5 5t63.5 -3t66 0q19 1 43 0q7 -1 14.5 -0.5t14.5 0t12.5 -2.5t9 -6.5t2.5 -11.5q-1 -14 -15 -15.5t-28 0.5q-16 1 -52.5 -2t-56.5 -2q-13 0 -39.5 2.5t-40 3t-39.5 -1.5zM749 489q24 -14 22 -31q-3 -6 -10.5 -9t-13.5 -2.5t-17 2t-15 1.5
q-14 1 -44.5 -1.5t-45.5 -1.5q-70 3 -98 0q-18 -2 -64 -1.5t-71 -1.5q-2 -1 -9 -1.5t-11.5 -1t-12.5 -1t-12.5 -0.5t-11.5 0.5t-10 2.5t-7.5 4.5t-4 7t0.5 10.5q1 4 3 6t7 3.5t8 2t12 0.5h11q11 1 28 3.5t22 3.5q18 1 60.5 2t44.5 1q30 1 81 -0.5t70 -1.5q8 1 39.5 3t48.5 1
zM758 344q-3 -2 -8 -9.5t-9 -9.5q-43 3 -62 2.5t-61.5 -3.5t-61.5 -4t-66 -1t-81 -2t-66 -8q-1 0 -5 2.5t-6.5 4t-6 4.5t-5.5 5.5t-3 6.5t0 7t4.5 5.5t9.5 4t12.5 3t15.5 2.5t14.5 1.5t13.5 1t10 0.5q24 2 73.5 2t79.5 1q24 2 66.5 5.5t60.5 4.5q73 4 81 -26zM945 368
q-1 -1 -3.5 -4t-2.5 -4.5t2 -4.5q0 -2 -1.5 -2.5t-5.5 -0.5h-5q0 -17 5 -97.5t1 -117.5q3 -7 3 -13q1 -39 1.5 -46.5t-3.5 -44.5t-4 -44q-1 -10 1 -14q-4 -13 -9.5 -38t-9.5 -38q-4 -6 -10.5 -10.5t-16 -9.5t-13.5 -8q-14 -2 -37 -7.5t-35 -7.5q-75 5 -203 1.5t-211.5 -5
t-200.5 11.5q-11 2 -28.5 9t-24.5 9q-1 1 -12 14.5t-17 19.5q-18 154 -19 210q0 4 1.5 13.5t1.5 13.5q0 3 -1.5 13t-0.5 16q7 32 6.5 72t-14.5 68q9 10 16 51q38 21 61 43l10 10l12 12q6 6 12 9q5 3 11 5t9.5 4t5.5 7q3 8 3 23.5t-1 34t-1 27.5q4 51 2 101q0 2 0.5 24.5
t-2.5 23.5q8 22 5 31q4 0 7.5 4.5t5.5 5.5q72 9 127 9q6 0 17.5 -1t18 -0.5t30.5 -1.5q13 -1 46.5 -4.5t59.5 -6t48 -2.5q21 0 66 -3t66 -3q8 -1 23.5 0.5t24 0.5t16.5 -8q17 -14 46 -46t56 -74q13 -19 13 -21q2 -5 -1 -23.5t-4 -26.5q0 -2 1 -10t0 -12.5t-5 -7.5
q0 -4 3 -11t3 -10q1 -5 -1 -21t1 -21q1 -3 3.5 -6t6.5 -7l6 -6q4 -4 13 -14t15 -17.5t11 -15.5zM465 704q-18 1 -63.5 4.5t-76 3.5t-58.5 -7q-4 -30 2 -109q-3 -6 -4 -14t-1.5 -13t0 -15.5t0.5 -13.5q0 -10 -1.5 -29.5t-1.5 -29.5v-69l-3 -12q-2 -8 -2 -12q-1 -9 -1.5 -28.5
t-2 -35t-6.5 -26.5q0 -1 -0.5 -19.5t0.5 -22.5q17 -9 33 -20t36.5 -25.5t30.5 -22.5q7 4 19.5 11t20.5 11.5t21.5 11.5t22.5 10.5t24 9t25.5 6.5t26.5 3t28 -2q55 -7 104 -32q4 -2 8 -5t7 -4.5t6 -1.5q5 1 19 18t21 16q5 6 11 12.5t11 11t13.5 11t12.5 9.5t14.5 10t14 9
t15.5 9.5t14 9.5q1 0 13 7t18 11.5t8 8.5q2 6 3 50q0 19 -1 75.5t1 75.5q-74 -16 -140 -20q-6 3 -9 6.5t-3 9.5t0.5 10t3 12.5t3.5 11.5q2 8 9.5 33t11 42t3.5 34q-46 2 -132.5 7.5t-128.5 7.5zM783 606q1 3 8.5 12.5t8.5 17.5q-1 1 -2.5 2t-2.5 2q0 -2 -4 -8t-5.5 -8
t-3.5 -8.5t1 -9.5zM795 587q14 12 20 30q-1 2 -4 3q-6 -8 -16 -33zM818 579q10 6 18 6q-1 3 -2.5 6t-4 5.5t-3.5 4.5q-1 -1 -4 -5.5t-4 -8t0 -8.5zM747 575v-4q4 -3 23 1q0 4 -5 5t-10 0t-8 -2zM187 380q0 1 3 3.5t3 5.5q-3 0 -5.5 -4t-0.5 -5zM174 293q16 -10 31 -13
q2 1 0.5 5.5t-0.5 5.5q-8 0 -10 2q-3 12 5.5 27.5t8.5 25.5q-20 -15 -35 -53zM137 315q0 -11 5 -13q-2 7 2 15t4 11q-3 -1 -5.5 -6.5t-5.5 -6.5zM693 182q13 -9 24.5 -20t27.5 -28t21 -23q17 -16 44 -51q13 -17 37 -55.5t38 -56.5q5 20 8.5 40.5t4.5 46t2 39.5t0 46.5
t-1.5 41t-2.5 48t-3 43.5q0 7 1 22.5t-0.5 27t-6.5 20.5q-128 -64 -194 -141zM137 267q0 -2 -4.5 -27t-3.5 -35q0 -2 1.5 -5.5t1.5 -4.5t-2 -4t-3 -4q-1 -22 -1 -30t2 -31t3 -32q6 -120 9 -151q36 43 48 72q48 53 61 74q7 3 10 3q6 16 26.5 36.5t26.5 31.5q-73 76 -175 107z
M725 99q-106 108 -203 118q-21 3 -41.5 -2.5t-30.5 -11t-29 -18.5q-24 -7 -44 -22t-42 -37.5t-34 -31.5q0 -1 -1 -5.5t-2 -6.5q-6 -6 -23 -24t-28 -31t-20 -26q-5 -9 -20 -28t-24 -35t-14 -34q5 -4 11.5 -5t14.5 0t13 0q1 0 5 -2t6 -2q4 -1 10.5 -1.5t8.5 -0.5q75 -8 222 -5
q12 0 104.5 4t142.5 3q34 -3 77.5 -2t68.5 13q-59 122 -128 193z" />
    <glyph glyph-name="uniE60A" unicode="&#xe60a;" 
d="M961 -206h-898q-26 0 -44.5 18t-18.5 43v467v118q0 20 7.5 34t14 18t7.5 4l483 310l483 -310q3 -1 8 -4.5t13 -17.5t8 -34v-118v-467q0 -25 -18.5 -43t-44.5 -18zM105 -165h814q21 0 38 12l-445 257l-445 -258q17 -11 38 -11zM620 112l138 95v258h-492v-257l140 -96
l106 59zM41 -100l320 187l-320 215v-402zM983 400q0 19 -7.5 33t-14.5 18l-7 5l-442 283l-442 -283q-3 -2 -8 -5t-13 -17.5t-8 -33.5l1 -38l40 -27v66q0 10 6 18.5t12 11.5l6 3l406 248l406 -248q2 -1 6.5 -3.5t11 -11t6.5 -18.5v-68l40 28q1 34 1 39zM983 300l-318 -213
l318 -186v399zM348 261h328v-20h-328v20zM348 322h328v-20h-328v20zM348 383h328v-20h-328v20z" />
    <glyph glyph-name="uniE60C" unicode="&#xe60c;" 
d="M597 682q0 -29 20 -49.5t49 -20.5t49 20.5t20 49t-20 49t-49 20.5t-49 -20.5t-20 -48.5zM597 682zM823 363l-7 106q-1 8 -5 15l-34 57v27q0 10 -7 17t-17 7h-145q-9 0 -16.5 -7t-7.5 -17v-42l-83 -60l-83 63v33q0 9 -7 15.5t-16 6.5h-138q-9 0 -16 -6.5t-7 -15.5v-40
l-128 -67q-7 -4 -4 -10l21 -41q4 -7 11 -3l100 52v-59v-74l-37 -85h37v-180q0 -8 8 -8h45q8 0 8 8v180h30h25v-180q0 -8 8 -8h45q8 0 8 8v180h43l-36 84v134l59 -46l11 -15q5 -7 11 -2l6 -4q6 -5 10 1l24 32l45 32v-141v-90v-249q0 -8 8 -8h46q8 0 8 8v225h71v-225
q0 -8 7 -8h46q8 0 8 8v339q0 2 -1 4v16q6 -2 13 -2h2q13 1 22 11t9 24zM823 363zM261 658q0 -27 19 -46t46 -19t46 19t19 46t-19 46t-46 19t-46 -19t-19 -46zM261 658zM509 646q-8 17 -23 21.5t-26.5 -5.5t-11.5 -31q0 -6 1.5 -11.5t6.5 -10t8 -7t10.5 -7t8.5 -5.5
q22 -14 26 -26q3 11 25 26q2 2 11 7.5t12.5 8.5t8 10.5t4.5 15.5q0 20 -12.5 30t-27 5.5t-21.5 -21.5zM509 646z" />
    <glyph glyph-name="uniE60D" unicode="&#xe60d;" horiz-adv-x="1146" 
d="M808 -54h-601q-55 0 -94 39.5t-39 94.5v601q0 55 39 94.5t94 39.5h601q56 0 95 -39.5t39 -94.5v-601q0 -55 -39 -94.5t-95 -39.5zM207 748q-27 0 -47 -19.5t-20 -47.5v-601q0 -28 20 -47.5t47 -19.5h601q28 0 47.5 19.5t19.5 47.5v601q0 28 -19.5 47.5t-47.5 19.5h-601z
M717 410v-54h-175v-176h-55v176h-174v54h174v176h55v-176h175z" />
    <glyph glyph-name="uniE60E" unicode="&#xe60e;" 
d="M1 371q-1 7 1 14l92 407q2 7 6 13q16 31 45 50q31 19 68 19h591h6h7h157h7q18 0 30.5 -12.5t12.5 -29.5l-1 -512q0 -18 -12.5 -30.5t-29.5 -12.5q-3 0 -6 1l-141 -1q-98 -7 -166 -78.5t-71 -169.5q1 -6 1 -11q0 -52 -36.5 -88t-87.5 -36q-44 0 -77.5 27t-43.5 69h-1
q-10 48 -10 97q0 76 24 147l-237 1h-7q-31 1 -58.5 17t-44.5 43q-21 35 -18 76zM938 788h-85v-425h85v425zM91 339q13 -20 37 -19h1h300q18 0 30.5 -12.5t12.5 -30.5q0 -10 -5 -19h1q-26 -49 -37 -103q-1 -2 -2 -7.5t-2.5 -22.5t-1.5 -37q0 -10 1 -20.5t2 -18.5t1.5 -14.5
t1.5 -10.5l1 -3v-1v-1q0 -16 11.5 -28t28 -12t28.5 12t12 28v3q-1 33 6 68q4 19 10 39h1q27 82 90.5 142t147.5 81l1 436l-556 1h-5q-9 -1 -16 -6q-11 -6 -15 -18h-1l-88 -391q-6 -18 4 -35z" />
    <glyph glyph-name="uniE611" unicode="&#xe611;" 
d="M1023 397q1 -7 -1 -14l-92 -407q-2 -7 -6 -13q-16 -31 -45 -50q-31 -19 -68 -19h-591h-6h-7h-157h-7q-18 0 -30.5 12.5t-12.5 29.5l1 512q0 18 12.5 30.5t29.5 12.5q3 0 6 -1l141 1q98 7 166 78.5t71 169.5q-1 6 -1 11q0 52 36.5 88t87.5 36q44 0 77.5 -27t43.5 -69h1
q10 -48 10 -97q0 -76 -24 -147l237 -1h7q31 -1 58.5 -17t44.5 -43q21 -35 18 -76zM86 -20h85v425h-85v-425zM933 429q-13 20 -37 19h-1h-300q-18 0 -30.5 12.5t-12.5 30.5q0 10 5 19h-1q26 49 37 103q1 2 2 7.5t2.5 22.5t1.5 37q0 16 -2 32.5t-3 25.5l-2 9v1v1
q0 16 -11.5 28t-28 12t-28.5 -12t-12 -28v-3q1 -33 -6 -68q-4 -19 -10 -39h-1q-27 -82 -90.5 -142t-147.5 -81l-1 -436l556 -1h5q9 1 16 6q11 6 15 18h1l88 391q6 18 -4 35z" />
    <glyph glyph-name="uniE612" unicode="&#xe612;" 
d="M798 116q-11 0 -16 9q-3 6 -1.5 13t8.5 11q61 36 98 98q37 63 37 137t-37 137q-35 61 -96 98q-7 3 -8.5 10.5t2 13.5t11 8t13.5 -2q69 -41 109 -110q41 -72 41 -155t-42 -155q-41 -70 -111 -111q-4 -2 -8 -2zM704 230q-10 0 -15 9q-4 6 -2 13.5t8 10.5q32 19 51 50
q19 33 19 71t-19 70q-18 32 -49 50q-7 4 -8.5 11t2 13.5t10.5 8t14 -1.5q39 -24 62 -63q23 -41 23 -88q0 -48 -24 -88q-23 -40 -63 -63q-4 -3 -9 -3zM567 -10q-33 0 -68 25l-34 23q-6 5 -7.5 12t3 13t11.5 7.5t13 -3.5l34 -23q11 -8 28 -14.5t28 -3.5q4 2 6 3.5t4 10t3 23.5
v641q-1 14 -3.5 22.5t-5 10.5t-7.5 4q-11 5 -26.5 -2t-25.5 -14l-1 -1l-210 -157q-21 -18 -51 -27t-44 -10t-24 0q-34 0 -59 -22.5t-30 -56.5l-1 -12v-111l1 -12q5 -33 30 -55.5t59 -22.5h2q27 0 56.5 -9.5t40.5 -15.5t17 -10l10 -7q6 -5 21.5 -19t29.5 -29t30.5 -38
t28.5 -48q3 -6 0.5 -13t-9.5 -10t-13.5 -0.5t-10.5 8.5q-15 34 -43 66.5t-41.5 43t-22.5 16.5q-45 30 -96 29q-47 0 -82.5 31.5t-41.5 78.5v1l-1 14v114l1 14q6 47 41.5 78.5t82.5 31.5h1q7 0 17.5 0.5t36 7.5t42.5 21v1l211 157q12 10 27 17q35 16 61 4q17 -7 25 -20
q10 -16 12 -47v-1v-642v-1q0 -17 -2 -28t-10.5 -23.5t-24.5 -17.5q-9 -3 -19 -3z" />
    <glyph glyph-name="uniE613" unicode="&#xe613;" 
d="M958 554q-8 60 -41.5 110.5t-86.5 81.5q-74 43 -161.5 29.5t-151.5 -78.5l-4 -4l-5 4q-64 65 -151 78.5t-162 -29.5q-53 -31 -86.5 -81.5t-41.5 -110.5q-8 -61 11 -118t62 -100q9 -10 22 -10t22 9t9 22t-9 22q-32 33 -46.5 76.5t-8.5 90.5q6 46 31.5 84t66.5 62
q56 32 122 21.5t115 -60.5l26 -27q9 -9 22.5 -9t22.5 9l26 27q49 50 115.5 60.5t121.5 -21.5q41 -24 66.5 -62t31.5 -84q6 -47 -8.5 -90.5t-46.5 -76.5q-9 -9 -9 -22t9 -22t22 -9t22 10q43 43 62 100t11 118zM767 305l-249 -253q-2 -2 -5.5 -2t-5.5 2l-249 253q-9 10 -22 10
t-22.5 -9t-9.5 -22t9 -22l250 -254q20 -21 50 -21q29 0 49 21l250 254q9 9 9 22t-9.5 22t-22.5 9t-22 -10zM391 563q-13 0 -22.5 -9t-9.5 -22v-31q0 -13 9.5 -22t22.5 -9t22 9t9 22v31q0 13 -9 22t-22 9zM634 563q-13 0 -22 -9t-9 -22v-31q0 -13 9 -22t22 -9t22.5 9t9.5 22
v31q0 13 -9.5 22t-22.5 9zM589.5 421.5q-10.5 7.5 -23 4.5t-20.5 -13q-13 -20 -34 -20q-20 0 -33 19q-7 11 -19.5 14t-23.5 -4t-14 -19.5t4 -23.5q11 -18 34 -33t52.5 -15t52.5 15t34 33q7 11 4 23t-13.5 19.5z" />
    <glyph glyph-name="uniE617" unicode="&#xe617;" 
d="M564 276l289 288q10 10 10 24.5t-10 25t-24.5 10.5t-24.5 -11l-290 -287l-286 287q-11 11 -25 11t-24.5 -10.5t-10.5 -25t10 -24.5l287 -287l-289 -288q-10 -10 -10 -24.5t10 -25t24.5 -10.5t24.5 11l289 287l289 -290q11 -10 25.5 -10t24.5 10t10 24.5t-10 24.5z
M564 276z" />
    <glyph glyph-name="uniE619" unicode="&#xe619;" 
d="M212 698q10 0 12 10q11 58 57 60q26 1 41 -13t22 -46q2 -10 13 -10h305q8 0 11 6q24 43 32 52q10 10 39 10q42 0 54 -59q2 -11 13 -11h18q66 -1 66 -65v-291v-269q0 -39 -16.5 -55.5t-55.5 -16.5h-621q-41 0 -58 17t-17 57v549q0 40 17 57t58 17q4 0 10 1zM187 486
q-5 0 -9 -4t-4 -9v-13v-383q0 -22 4 -26t26 -4h614q23 0 27 4.5t4 26.5q0 341 1 381q0 16 -6 21.5t-22 5.5h-621h-14zM701 656v-55q2 -17 12.5 -26.5t25.5 -9.5t25.5 10.5t10.5 28.5q2 48 0 103q0 17 -10 27.5t-26 11.5q-15 0 -26 -10.5t-12 -27.5v-52zM247 658v-57
q1 -16 12 -26t26 -10t25.5 10t10.5 27q2 53 0 107q-1 16 -11.5 26.5t-25.5 10.5t-25.5 -10.5t-11.5 -27.5v-50zM265 137v26q0 5 4 9t9 4h81q5 0 9 -4t4 -9v-26q0 -5 -4 -8.5t-9 -3.5h-81q-5 0 -9 3.5t-4 8.5zM459 137v26q0 6 4 9.5t9 3.5h80q6 0 9.5 -3.5t3.5 -9.5v-26
q0 -5 -3.5 -9t-9.5 -4h-80q-5 0 -9 4t-4 9zM652 137v26q0 6 4 9.5t9 3.5h77q6 0 9.5 -3.5t3.5 -9.5v-26q0 -6 -3.5 -9.5t-9.5 -3.5h-77q-5 0 -9 3.5t-4 9.5zM373 383v-24q0 -5 -4 -9t-9 -4h-81q-6 0 -9.5 4t-3.5 9v24q0 6 3.5 9.5t9.5 3.5h81q5 0 9 -3.5t4 -9.5zM459 359v24
q0 6 4 9.5t9 3.5h80q6 0 9.5 -3.5t3.5 -9.5v-24q0 -5 -3.5 -9t-9.5 -4h-80q-5 0 -9 4t-4 9zM265 249v24q0 5 4 9t9 4h81q6 0 9.5 -4t3.5 -9v-24q0 -5 -3.5 -9t-9.5 -4h-81q-5 0 -9 4t-4 9zM472 286h80q5 0 9 -4t4 -9v-24q0 -5 -4 -9t-9 -4h-80q-5 0 -9 4t-4 9v24q0 5 4 9
t9 4zM743 346h-78q-5 0 -9 3.5t-4 9.5v24q0 5 4 9t9 4h78q5 0 9 -4t4 -9v-24q0 -6 -4 -9.5t-9 -3.5zM756 272v-23q0 -5 -3.5 -9t-9.5 -4h-78q-5 0 -9 4t-4 9v23q0 5 4 9t9 4h78q6 0 9.5 -4t3.5 -9z" />
    <glyph glyph-name="uniE61A" unicode="&#xe61a;" horiz-adv-x="1025" 
d="M49 641l462 -318l464 318h-926zM511 258l-511 351v-669h1024v669z" />
    <glyph glyph-name="uniE61D" unicode="&#xe61d;" horiz-adv-x="1027" 
d="M1026 -42v-6q0 -68 -48 -116t-116 -48h-698q-68 0 -116 48t-48 116v696q0 68 48 116t116 48h698q68 0 116 -48t48 -116v-530v-160zM513 679q-103 0 -190 -50.5t-137.5 -137.5t-50.5 -190t50.5 -190t137.5 -137.5t190 -50.5t190 50.5t137.5 137.5t50.5 190
q0 102 -50.5 189t-137.5 138t-190 51zM513 -31q-90 0 -166 44t-120 120t-44 166q0 91 44 167.5t120 120.5t166 44t166 -44t120 -120t44 -166t-44 -166.5t-120 -121t-166 -44.5zM690 311q9 0 16.5 7t7.5 18q0 10 -7 17.5t-17 7.5h-113l63 90q6 6 6 16t-7 17.5t-17 7.5
q-15 0 -21 -12l-82 -117h-12l-82 117q-6 12 -21 12q-9 0 -16.5 -7t-7.5 -17.5t6 -16.5l63 -90h-112q-10 0 -17.5 -7.5t-7.5 -17.5t7 -17.5t18 -7.5h153v-57h-153q-10 0 -17.5 -7t-7.5 -18q0 -9 7 -16.5t18 -7.5h153v-107q0 -10 7.5 -17.5t17.5 -7.5t17.5 7t7.5 18v107h154
q9 0 16.5 7t7.5 17t-7 17.5t-17 7.5h-154v57h150zM690 311z" />
    <glyph glyph-name="uniE620" unicode="&#xe620;" 
d="M830 371q-10 0 -16.5 -7t-6.5 -16v-220q0 -21 -15.5 -36t-36.5 -15h-492q-21 0 -36.5 15t-15.5 36v461q0 21 15.5 36t36.5 15h160q10 0 17 7t7 16.5t-7 16.5t-17 7h-160q-41 0 -69.5 -28.5t-28.5 -69.5v-461q0 -41 28.5 -69.5t69.5 -28.5h492q41 0 69.5 28.5t28.5 69.5
v220q0 9 -7 16t-16 7v0zM340 235q-2 -10 3.5 -18t15.5 -9q2 -1 4 -1q9 0 15.5 5.5t7.5 13.5q2 11 7 30.5t26.5 71t49.5 94.5q57 85 135 134q75 46 168 57l-76 -78q-7 -7 -6.5 -16.5t7 -16.5t16.5 -7t16 7l118 121v1h1v1h1v1h1v1v0v1h1v1v1h1v1v1h1v1v1v1v0v1v0v1h1v1v0v0v1
v1v0v1v0v1v0v0l-1 1v0v1v0v1v1v1h-1v1v0v1v0v1h-1v1l-1 1v0v1v0h-1v0v1h-1v1v0q-1 0 -1 1v0l-1 1h-1v1h-1v1h-1v0l-1 1v0h-1v0l-1 1v0h-1h-1v1h-1l-171 56q-9 3 -18 -1t-12 -13.5t1.5 -18t13.5 -11.5l69 -23q-76 -16 -140 -56q-88 -53 -150 -147q-31 -47 -53.5 -102
t-28 -76.5t-8.5 -34.5v0zM340 235z" />
    <glyph glyph-name="uniE622" unicode="&#xe622;" 
d="M926 812h-827q-41 0 -70 -29t-29 -70v-827q0 -40 29 -69t70 -29h827q40 0 69 29t29 69v827q0 41 -29 70t-69 29zM965 -94q0 -24 -17.5 -41.5t-41.5 -17.5h-787q-25 0 -42.5 17.5t-17.5 41.5v787q0 25 17.5 42.5t42.5 17.5h787q24 0 41.5 -17.5t17.5 -42.5v-787zM512 673
q-102 0 -174 -72t-72 -174t72 -174t174 -72t174 72t72 174t-72 174t-174 72zM512.5 240q-77.5 0 -132.5 55t-55 132.5t55 132t132.5 54.5t132 -54.5t54.5 -132t-54.5 -132.5t-132 -55zM512 182q106 0 181 -75t75 -181h59q0 131 -92 223t-222.5 92t-223 -92t-92.5 -223h59
q0 106 75 181t181 75z" />
    <glyph glyph-name="uniE623" unicode="&#xe623;" 
d="M886 604h-748q-31 0 -53 -22t-22 -53v-458q0 -31 22 -53t53 -22h748q31 0 53 22t22 53v458q0 31 -22 53t-53 22v0zM868 550l-298 -264q-39 -34 -58 -34t-58 34l-298 264h712v0zM119 88v414l233 -205l-233 -209v0zM158 50l234 207l38 -34q34 -29 82 -29t82 29l38 34
l234 -207h-708v0zM905 88l-233 209l233 205v-414v0zM905 88z" />
    <glyph glyph-name="uniE627" unicode="&#xe627;" 
d="M530 896q-108 0 -206 -37.5t-169 -100.5t-113 -150.5t-42 -183.5q0 -230 163 -371v-131q0 -50 40 -50q7 0 15 1.5t12 3.5l4 2l159 74q65 -11 137 -11q107 0 199 39t155 104.5t99 153.5t36 185q0 95 -42.5 183.5t-111 151t-157 100t-178.5 37.5zM530 828q76 0 152 -31.5
t137 -88.5q64 -59 97.5 -132.5t33.5 -151.5q0 -116 -54.5 -211t-151 -148.5t-214.5 -53.5q-66 0 -126 10l-21 3l-19 -9l-133 -62v100v31l-23 21q-140 121 -140 319q0 110 62 203t168.5 147t231.5 54zM341 419q0 -29 -20.5 -49.5t-49.5 -20.5t-49.5 20.5t-20.5 49.5
t20.5 49.5t49.5 20.5t49.5 -20.5t20.5 -49.5zM579 419q0 -29 -20.5 -49.5t-49.5 -20.5t-49.5 20.5t-20.5 49.5t20.5 49.5t49.5 20.5t49.5 -20.5t20.5 -49.5zM818 419q0 -29 -21 -49.5t-50 -20.5t-49.5 20.5t-20.5 49.5t20.5 49.5t49.5 20.5t50 -20.5t21 -49.5z" />
    <glyph glyph-name="uniE629" unicode="&#xe629;" 
d="M512 145l-431 432l34 34l431 -431zM942 577l-431 -432l-34 35l431 431z" />
    <glyph glyph-name="uniE62A" unicode="&#xe62a;" 
d="M520 744l5 6l-6 -5l-7 7l-462 -462l27 -26l435 435l435 -435l27 26zM794 -114h-189v187h-186v-187h-188v428h-38v-466h639v466h-38v-428zM457 35h110v-149h-110v149z" />
    <glyph glyph-name="uniE62B" unicode="&#xe62b;" horiz-adv-x="1025" 
d="M678 715.5q0 14.5 -10 24.5t-25 10h-479q-15 0 -25 -10t-10 -24.5t10 -25t25 -10.5h479q15 0 25 10.5t10 25zM164 628q-15 0 -25 -10t-10 -24.5t10 -25t25 -10.5h303q14 0 24.5 10.5t10.5 25t-10.5 24.5t-24.5 10h-303zM805 502l-110 -111l-111 111q-10 10 -24.5 10
t-25 -10.5t-10.5 -24.5t11 -25l89 -89h-47q-15 0 -25 -10.5t-10 -24.5t10 -24.5t25 -10.5h83v-28h-83q-15 0 -25 -10t-10 -24.5t10 -25t25 -10.5h83v-61q0 -14 10 -24t24.5 -10t25 10t10.5 24v61h83q14 0 24 10.5t10 25t-10 24.5t-24 10h-83v28h83q14 0 24 10.5t10 24.5
t-10 24.5t-24 10.5h-48l90 89q10 11 10 25t-10.5 24.5t-24.5 10.5t-25 -10zM1024 801q0 39 -28 67t-67 28h-834q-39 0 -67 -28t-28 -67v-894q0 -15 10 -25t25 -10h5q13 0 23 9l93 87l92 -87q10 -9 24 -9h10q14 0 24 9l92 87l93 -87q10 -9 24 -9h10q13 0 24 9l92 87l92 -87
q10 -9 24 -9q15 0 26 11q10 11 9.5 25.5t-11.5 23.5l-116 109q-10 9 -24 9t-24 -9l-97 -91l-98 91q-10 9 -23.5 9t-23.5 -9l-98 -91l-97 91q-10 9 -24 9t-24 -9l-62 -58v818q0 10 7.5 17.5t17.5 7.5h834q10 0 17.5 -7.5t7.5 -17.5v-812v-73q0 -14 10.5 -24t24.5 -10
q15 0 25 10t10 25v884z" />
    <glyph glyph-name="uniE62C" unicode="&#xe62c;" 
d="M512 640q50 0 85.5 -35.5t35.5 -85.5t-35.5 -85.5t-85.5 -35.5t-85.5 35.5t-35.5 85.5t35.5 85.5t85.5 35.5zM226 151q-2 -14 6 -25t22 -13.5t25 6t13 21.5q13 82 75.5 135.5t146 53.5t146 -53.5t75.5 -135.5q2 -12 11.5 -20t21.5 -8h5q14 3 22 14t6 25q-12 75 -58 133.5
t-114 87.5q33 26 52 64.5t19 82.5q0 78 -55 133t-133 55t-133 -55t-55 -133q0 -44 19.5 -82.5t52.5 -65.5q-67 -29 -112.5 -87.5t-57.5 -132.5zM512 896q-104 0 -199 -40.5t-163.5 -109t-109 -163.5t-40.5 -199q0 -160 91 -292q8 -11 22 -13.5t25 5.5t13.5 21.5t-5.5 24.5
q-79 115 -79 254q0 90 35 172.5t95 142.5t142.5 95t172.5 35t172.5 -35t142.5 -95t95 -142.5t35 -172.5t-35 -172.5t-95 -142.5t-142.5 -95t-172.5 -35q-139 0 -254 79q-11 8 -24.5 5.5t-21.5 -13.5t-5.5 -25t13.5 -22q132 -91 292 -91q104 0 199 40.5t163.5 109t109 163.5
t40.5 199t-40.5 199t-109 163.5t-163.5 109t-199 40.5z" />
    <glyph glyph-name="uniE62D" unicode="&#xe62d;" 
d="M857 103l-74 130v261q0 77 -52 148t-133 101q-4 40 -28.5 65.5t-59 25.5t-59 -25.5t-28.5 -65.5q-81 -30 -133 -101t-52 -148v-261l-77 -136q-8 -15 0 -29.5t25 -14.5h184q10 -49 49.5 -81.5t91 -32.5t91 32.5t49.5 81.5h184h1q13 0 21 8.5t8 20.5q0 13 -8 21zM510.5 776
q15.5 0 24.5 -19q-1 0 -10 1t-14 1t-14 -1t-11 -1q9 19 24.5 19zM510.5 -3q-27.5 0 -49 15.5t-30.5 40.5h159q-9 -25 -30.5 -40.5t-49 -15.5zM236 111l56 100q4 6 4 14v269q0 77 63 142t151.5 65t151.5 -65t63 -142v-269q0 -8 4 -14l56 -100h-549z" />
    <glyph glyph-name="uniE62F" unicode="&#xe62f;" 
d="M435 717q-76 0 -114.5 -41.5t-38.5 -112.5h51q1 47 29 74t73 29q74 -3 76 -78q0 -37 -53 -86q-29 -26 -38.5 -47t-9.5 -45v-52h51v52q0 30 37 65q64 56 64 113q0 58 -33.5 93.5t-93.5 35.5zM410 256h51v51h-51v-51zM845 419v355q-1 3 -2 7.5t-6 17t-12.5 21.5t-22.5 17
t-34 8h-717v-733q1 -2 2 -6t7.5 -14.5t16.5 -18.5t30.5 -14.5t46.5 -7.5h44h52h53h51h42h29q11 0 10 0q-5 0 97.5 92t207.5 184.5t105 91.5zM410 102q-237 1 -256 0q-27 -1 -39.5 14t-13 28t0.5 16v637h666q10 0 15.5 -2.5t8 -8.5t3 -10.5t0 -13.5t-0.5 -12v-307zM957 276
l-89 83l-16 14l-15 -14l-67 -63l-245 -228l-5 -4l-1 -6l-33 -135l148 27l7 1l5 5l244 228l67 62l16 15zM619 -10l-72 -14l14 67l225 209l57 -53zM875 228l-58 54l35 33l58 -54z" />
    <glyph glyph-name="uniE631" unicode="&#xe631;" 
d="M927 799q-46 47 -107 71.5t-122.5 24.5t-122 -24.5t-107.5 -71.5q-74 -74 -90.5 -177t27.5 -192l-403 -403l7 -146l146 -7l58 58q-1 1 -4 4.5t-10.5 11.5t-13.5 16t-13.5 19t-10.5 19.5t-4 18t5 13.5q5 5 13.5 5t17.5 -3.5t20 -10.5t19 -13.5t16.5 -14t11.5 -10t4 -4.5
l51 51q-1 2 -4 5t-10.5 11t-14 16.5t-13 19t-10.5 19.5t-4 17.5t5 13.5q12 12 37.5 -1.5t45 -31t19.5 -18.5l-4 -4l55 55q-1 2 -4 5t-10.5 11.5t-14 16.5t-13 18.5t-10.5 19.5t-4 17.5t5 13.5q12 12 37.5 -1.5t45 -30.5t19.5 -19l-18 -18l108 108q89 -44 192 -27.5t177 90.5
q63 63 85 146.5t0 167t-85 145.5zM774.5 493.5q-31.5 -31.5 -76.5 -31.5t-76.5 31.5t-31.5 76.5t31.5 76.5t76.5 31.5t76.5 -31.5t31.5 -76.5t-31.5 -76.5z" />
    <glyph glyph-name="uniE633" unicode="&#xe633;" 
d="M510 832q-91 0 -173.5 -35t-142.5 -95t-95.5 -143t-35.5 -174t35.5 -173.5t95.5 -142.5t142.5 -95.5t173.5 -35.5t174 35.5t142.5 95.5t95 142.5t35.5 173.5t-35.5 174t-95 143t-142.5 95t-174 35zM510 -17q-109 0 -202 54t-146.5 146.5t-53.5 202t53.5 202t146.5 146.5
t202 54t202 -54t147 -146.5t54 -202t-54 -202t-147 -146.5t-202 -54zM510.5 229q-18.5 0 -32 -13t-13.5 -31.5t13.5 -32t32 -13.5t31.5 13.5t13 32t-13 31.5t-31.5 13zM510.5 631q-55.5 0 -95 -39t-39.5 -95h45q0 37 26 63t63 26t63.5 -26t26.5 -63t-26.5 -63t-63.5 -26
q-10 0 -22 3v-115q0 -9 6.5 -16t15.5 -7t16 7t7 16v69q47 8 79 45.5t32 86.5q0 56 -39 95t-94.5 39z" />
    <glyph glyph-name="uniE634" unicode="&#xe634;" 
d="M776 678q-4 -3 -6 -9l-2 2l-241 -242l-241 242l-2 -2q-2 6 -6 9q-9 10 -22.5 10t-22.5 -9.5t-9 -23t9 -22.5q4 -4 9 -6l-2 -2l242 -241l-242 -241l2 -2q-5 -2 -9 -6q-9 -9 -9 -22.5t9 -23t22.5 -9.5t22.5 10q4 3 6 9l2 -2l241 242l241 -242l2 2q2 -6 6 -9q9 -10 22.5 -10
t23 9.5t9.5 23t-10 22.5q-3 4 -9 6l2 2l-242 241l242 241l-2 2q6 2 9 6q10 9 10 22.5t-9.5 23t-23 9.5t-22.5 -10z" />
    <glyph glyph-name="uniE635" unicode="&#xe635;" 
d="M850 738h-676q-46 0 -79 -33t-33 -79v-676q0 -46 33 -79t79 -33h676q46 0 79 33t33 79v676q0 46 -33 79t-79 33zM197 558q19 -2 45 -3q24 -1 61 -2q67 0 84 -1h115q-9 19 -20 34.5t-27 34.5l44 22q12 -17 25 -40q12 -23 23 -51h111q41 1 80 1q35 1 59 2q25 1 47 3v-156
h-49v112h-549v-121h-49v165zM558 407l-33 -31q-9 10 -23 24.5t-29 27.5q-16 14 -31 25.5t-26 19.5l27 29q35 -23 61 -45t54 -50zM288 415l43 -25q-19 -36 -41 -69q-24 -35 -53 -74l-43 27q75 73 94 141zM204 154q-4 12 -13.5 23.5t-21.5 20.5q18 2 45 7t54 12q28 7 56 16
q28 8 49 17v101v45q-1 15 -5 28q16 -3 30 -3q15 -1 27 0q11 0 12.5 -3.5t-6.5 -8.5t-10.5 -11.5t-2.5 -17.5v-111q70 37 128 87t94 120q14 -10 25 -16.5t21 -12.5q10 -4 10 -8.5t-8 -6.5q-11 -4 -28 -19t-37 -37q-39 -45 -87 -79.5t-115 -65.5q5 -7 22 -8q15 -1 34 -1
q22 -1 37 -1q20 0 37 1q18 0 31 1q32 2 51 5q20 4 31 13.5t15.5 26.5t6.5 45q23 -20 51 -27q-7 -32 -16 -50q-8 -19 -24 -29.5t-43 -15t-72 -6.5q-12 -1 -28 -1h-36h-38q-19 0 -36 1q-27 2 -43.5 7.5t-22.5 18.5q-21 -9 -42 -17q-20 -8 -41 -15t-43 -13zM794 129
q-4 -5 -6 -16.5t-2 -20.5v-113q0 -16 0.5 -26t1.5 -31h-48v37h-328q-48 0 -90 -2q-40 -2 -66 -6q1 14 2 30q1 15 1 32v48v21q0 8 -1 15q0 2 -0.5 6.5t-0.5 6.5q-1 10 -2 15q14 -4 30 -5q17 -1 29 1q10 0 11.5 -2t-5.5 -8q-8 -6 -11 -14.5t-3 -16.5v-85h195v97q0 22 -2 37
q-1 15 -4 29q14 -2 28 -3q12 -1 30 1q18 1 8 -12q-15 -15 -15 -36v-113h194v82q0 26 -1 42q-2 15 -4 24q17 -2 31 -3q16 -1 23 0q15 2 5 -11zM818 238q-26 40 -54 72q-29 31 -69 63l31 31q39 -32 73 -68t56 -69z" />
    <glyph glyph-name="uniE637" unicode="&#xe637;" 
d="M888 598q-10 9 -23 8.5t-22 -10.5l-427 -454l-233 230q-10 9 -23 9t-22.5 -9.5t-9.5 -23t10 -22.5l256 -253h1q1 -1 7 -4q0 -1 1 -1.5t2 -1.5q6 -2 12 -2t12 3q1 0 2 1t2 1q5 3 7 5v0l449 479q9 9 9 22.5t-10 22.5z" />
    <glyph glyph-name="uniE639" unicode="&#xe639;" horiz-adv-x="2436" 
d="M1477 404q5 -13 21 -16q1 0 23 -2q3 -10 3 -13q5 -16 7 -20q6 -12 -1 -18q1 -2 4 -5q-5 -2 -7 -5t-1 -6.5t0 -6.5q-2 -5 1.5 -10.5t8.5 -6.5q9 -1 9 -12q0 -16 13 -26q12 14 19 23q5 -5 6 -8q0 -1 -5 -10l5 -3q8 -1 29 -15q8 -6 12 -6q22 -2 38 -2q20 0 31 20q3 7 2.5 9
t-6.5 7q4 5 -1 13q-1 1 -2 8t-5 10v1v1q0 3 0.5 8t0.5 8q6 87 6 92q0 10 -2.5 28.5t-2.5 24.5q-2 25 -17 104q-5 24 -18 75q-5 18 0 33q-7 17 -8 20q-11 28 -21 36q-3 3 -3 9q0 13 -13 15q-1 -1 -4.5 -3t-5 -2t-6.5 1q-1 6 -1 8h-7q-1 -3 -3 -4.5t-6 -1.5l-5 -1
q-17 -5 -25 0h-3h-2q-4 0 -16 -3t-19 0l-4 -3q-10 -6 -14 4q-6 -5 -8 -5.5t-10 1.5h-4q-16 -6 -19 -7q-1 -1 -5 -4.5t-6 -3.5h-7q-1 0 -1 -1q-1 -2 -2.5 -3.5t-3.5 -1.5h-4h-4q-6 -1 -14 -5q-2 -1 -7 -4.5t-6 -4.5q-3 -2 -13.5 -6t-14.5 -8q-4 -3 -7 -3q-6 2 -17 -6
q-7 -5 -15 -2q1 7 0.5 8.5t-5.5 5.5q-4 -2 -5 -3q-5 -3 -17.5 -11t-19.5 -11q-21 -10 -24 -30q-1 -2 -1.5 -4t-2 -4.5t-1.5 -4.5q-8 -20 -9 -23q-3 -12 -9 -19q-8 -9 -29 -34q-4 -5 -2 -14q3 -11 6 -26q0 -4 1 -11t2 -11q1 -10 6 -34.5t8 -37.5q0 -1 1 -20q-5 8 -15 10
q-17 3 -25 9q-2 1 -9 3q-8 3 -24.5 7.5t-24.5 6.5q-24 7 -33 4q3 4 12.5 10t11.5 12q-1 1 -4 3t-4.5 4t-0.5 5q0 6 0.5 7t-3.5 6l-4 5q-2 3 -7 2q-5 0 -11.5 -6t-7.5 -12q-4 -18 -22 -27q-4 -2 -7 0q-10 5 -20 17q26 5 34 6q-1 4 -0.5 17t-2.5 16l-4 -1q-6 -8 -19 -11
q-2 -1 -5 -3t-5 -3q-13 -4 -15 -3q-18 9 -29 20l15 10q3 2 12.5 8.5t13 9.5t11 9t11.5 10.5t9 11t8 13.5q3 5 10.5 17t10.5 18q12 23 10 63q0 8 -8 49q-1 6 -5 11q-6 8 -13 4q-1 0 -9 1h-3q-2 0 -4 0.5t-3 1.5q-2 -11 -15 -11q-7 8 -10 6l-7 -10q-8 -4 -17 -4q-2 0 -31 1
q-3 0 -6 1q1 3 4 4l10 5q6 3 11 5l10 4q3 2 8 4.5t8.5 4t8.5 2.5t10 1q15 -1 18 6q-1 5 -2.5 14t-2.5 12q-6 -1 -13 -2q0 2 0.5 3.5t1 4t0.5 4.5q-3 -2 -8.5 -4.5t-7.5 -4.5q1 -3 4 -7q-2 0 -7 1.5t-7 1.5q2 6 5 16q5 18 6 24q2 5 -1 7q-6 2 -12 10.5t-7.5 10t-3.5 2.5
t-4.5 2.5t-3.5 2.5q-13 -40 -12 -57q1 -12 -8 -27q-14 2 -15 2q-6 -1 -21 -5t-23 -5q-21 -4 -44 -4q-1 0 -25 4q-2 8 -10.5 42.5t-13.5 54.5q-10 -9 -11.5 -12.5t-0.5 -15.5q0 -22 2 -53q0 -10 -7 -10q-3 5 -7.5 7t-11.5 2t-10 1q-1 -1 -4.5 -5t-5.5 -6l2 -2l1 -3q1 -2 2 -3
l-7 -2q-3 -3 -15.5 -9t-15.5 -14l-1 -1l-2 -1q-3 -3 -4 -9t1 -10q6 -8 9 -10l7 -7q5 -5 9 -8t10 -3q1 0 8 -5l-3 -6q-2 -4 -3.5 -6.5t-3.5 -3.5q-10 -6 -13 -22q-3 -10 -12 -15q-13 -7 -22 -9q-8 -3 -10 -10q-6 -28 -6 -32q-1 -15 5 -23q4 -6 7 -12q4 -9 13.5 -12t14.5 -5
v-9v-10v-9q0 -2 -1 -8t-0.5 -10.5t3.5 -8.5q14 17 43 16q10 -17 12 -19q5 -7 23 -10q-4 -6 -5 -8q-21 -31 -22 -32q-11 -19 -30 -22l-26 -8q5 -4 16.5 -2.5t15.5 0.5l-24 -40q-1 -2 -4 -4q-20 -14 -46 -53q-4 -6 -9.5 -17t-7.5 -14q-9 -14 -9 -34q0 -4 -3 -8l-27 -27l-6 -6
l-6 -6q4 -1 10 -3t8 -3q26 16 27 16q1 1 5.5 2.5t6.5 2.5q45 33 57 43q9 8 26 24l20 21q16 14 30 25q12 9 18 19q2 4 6.5 11t5.5 8l13 -3q10 1 17 -8q4 -5 12 -5q19 -1 30 -13q-2 -10 -10 -17q-7 -7 -17 -18q-3 -4 -8.5 -10.5t-7.5 -9.5q-1 -2 -4.5 -5t-5.5 -5
q-2 -3 -6 -9.5t-6 -9.5q-8 -10 -11.5 -10.5t-14.5 5.5q-9 5 -14 4q-2 -1 -15 -1q-7 1 -8 0q-2 0 -15 -4q0 -11 14 -19q3 -2 32 -19q24 -14 26 -16q16 -11 21 -10.5t18 14.5q6 6 14.5 17.5t10.5 14.5q11 13 64 78q14 -6 17 -8q1 0 8 -5q3 -3 10 -8t11 -8q7 -5 4 -15
q-1 -3 -3 -10.5t-3 -11.5q-1 -2 -5 -13q-9 -26 -30 -35l-2 -2q-2 -4 -6.5 -7t-7 -4.5t-9 -4t-8.5 -3.5q-6 -2 -11 5q-1 1 -16 22l-1 -1h-1v-14q-11 8 -11 9q-4 -12 2 -22q2 -3 5.5 -9t4.5 -9q11 -18 14 -20q23 -20 50 -6q15 7 24 12q2 1 8 6q8 8 16 15q5 5 6 5
q3 4 10.5 13.5t11.5 14.5q4 3 12.5 13t13.5 16q3 4 10 13.5t11 14.5q10 11 17 29q-6 2 -6 3q-1 0 -3 3q-2 1 -3 2q1 0 8 3.5t8.5 4.5t4 5t2.5 10q6 -1 7 -0.5t1 5.5q0 1 -0.5 3.5t-0.5 4.5t2 5q9 12 2 27q0 2 -5 11q28 -14 55 -12q44 2 56 6q6 -17 7 -18q5 -13 1 -24
q-1 -4 3 -12.5t7 -9.5t4 0q10 5 17 -8q2 -1 5 -3t4 -1q3 2 6 2.5t7 -0.5t5 -1q15 0 44 9q21 8 39 38q9 17 -6 31q1 7 1 8q-4 4 -13 29q-1 2 -3 3q-8 5 -19 25q-22 40 -24 89q-3 78 16 154l-2 3q-2 1 -3 1q6 13 17 17q14 5 26 13q16 10 56 24q2 1 6.5 2t7.5 2q19 8 37 9
q10 0 47 1q55 1 81 2l3 -14q18 -53 25 -108q18 -120 19 -143q2 -49 -7 -77q-1 -2 -2 -7l-1 -4q-2 -6 -4.5 -15t-2.5 -12h-7q-14 -1 -42 11q-21 9 -36 26q-1 1 -14 11q8 10 9 11q14 12 24 27q13 20 30 19q11 -1 10 12q-1 4 0 7q3 26 -3 37q0 1 -1 5q-9 34 -43 36
q-6 1 -16.5 -1t-21.5 3q4 7 4 8l16 16q2 2 4 3q17 8 16 28q-9 1 -11 2q-5 1 -5 2q-1 5 -4 7.5t-9 4t-8 2.5q-5 3 -11 -1q-19 -13 -22 -15q-8 -9 -22 -7t-22 -4q-6 -5 -12 -4q-7 1 -9.5 0.5t-8.5 -2t-8 -1.5q-20 -4 -40 -15q-7 -3 -2 -10q3 0 21.5 4t28.5 5q5 0 17.5 2t18 2
t19.5 -1q-32 -44 -33 -46l-28 -51q5 -1 7.5 -3t3.5 -5t1 -4v-7v-6q-1 -1 -4 -2.5t-4.5 -3t-0.5 -5.5q4 -12 12 -14q11 -3 16 -3q14 0 25 -16q1 -2 5 -9zM844 704q5 -3 22 4q12 4 16 5q20 2 41 10l9 1q-8 -9 -14 -16q-5 2 -10 5l-1 -1h-1q-2 -8 -10 -10q-1 -1 -25 -11
q-2 -1 -3 -1q-12 3 -19 -9q-9 7 -11 21q5 2 6 2zM795.5 671.5q-1.5 0.5 -17.5 2.5q-18 13 -21 15q4 13 10.5 17.5t19.5 3.5h14q5 -22 5 -23q1 -3 8 -22q-4 0 -7 1t-6.5 3t-5 2.5zM807 575q-1 27 -2 30q0 15 21 27t50 28q3 1 19 8q20 9 24 10q8 3 33 10q49 13 64 17l35 5
q8 1 9 -8q4 -32 -2 -47q-3 -5 -20 -31q-2 -3 -6.5 -8t-6.5 -8q-7 -8 -15 -5q4 8 2.5 11t-9.5 2q-16 -2 -41 4q-18 5 -42 7q-4 0 -18 -5q-2 0 -4 -5q-2 -9 -8 -5q-6 3 -12 -4q-8 -10 -19 -5q-7 3 -12 -4q-7 -9 -20 -12q-1 -1 -3.5 -2.5t-3.5 -2.5t-5.5 -3t-7.5 -4zM832 532
q5 9 -3.5 17t-9.5 10q3 5 7.5 7t13 4t9.5 2q20 6 51 8q6 0 41 -3q3 0 13 -3q16 -3 5 -15q-6 -8 -13 -11q-8 -4 -41 -20q-5 -2 -6 0q-2 3 -5.5 3.5t-7.5 -1t-6 -0.5q-1 0 -11 -1q-6 -1 -7 -2q-9 -5 -15 -4t-15 9zM960 473q-15 -5 -47 -16t-48 -16q-1 0 -1 1h-1q3 9 9.5 25
t9.5 22q36 6 47 8q7 0 10 -3q2 -1 21 -21zM981 408q-4 0 -12 1.5t-13 2.5q-33 5 -37 6q-4 0 -33 2q-8 1 -16 -6q-6 -6 -1 -14q-3 0 -10.5 -5.5t-13.5 -1.5q-1 4 2 9.5t3 6.5q2 14 23 20q32 10 63 20q6 2 27 10q8 4 14 -3l25 -25q-11 -13 -21 -23zM1085 497l1 -5q-1 -1 -6 -4
l-2 2q1 1 3.5 3t3.5 4zM1084 432q-4 1 -11 2q1 1 6 8q2 -2 7 -8zM1211 526h-3q0 3 -1 10.5t0.5 13t8.5 10.5q-4 -27 -5 -34zM1473 460q12 18 13 19q28 27 55 23q0 -1 1.5 -5t2.5 -6h18q4 -9 0 -14q-11 -14 -14 -24q0 -3 -13 -20q-3 -4 -6 -3q-9 1 -12 -9q-5 0 -14 1t-15 1
q-4 9 -4 10q-7 10 -11 14q-5 4 -5 6t4 7zM2369 296q-25 17 -34 24q-10 9 -77 68q-2 2 -6.5 6t-7.5 7q-10 9 -21 5q-10 -3 -18 5q-4 4 -20 17q-10 9 -18 2q-1 2 -4 5.5t-4 4.5t-4.5 2.5t-6.5 -0.5q-2 2 -5 6.5t-6.5 6.5t-8.5 1l-1 2q-5 8 -15 5q-14 -5 -18 -11q-7 -10 -14 -8
q16 40 21 70l1 4q1 5 1 8q2 6 9 7q2 0 8.5 0.5t10.5 1.5q31 1 48 11q13 8 19 10q13 4 19 18q9 24 4 34q-1 2 -6 17t-11 21.5t-5 16.5q0 2 -1.5 4t-4.5 4.5t-5 4.5q-1 1 -1 6q-1 1 -1 3.5t-0.5 4.5t-1.5 4t-5 4.5t-5 4.5q-2 2 -4 7q-23 49 -25 54q-1 1 -6 19q-10 6 -9 13
q0 1 -4 4q0 1 -3 2.5t-3 2.5q-8 12 -25 5q-31 -12 -50 -39q-12 -18 -18 -45q-8 -33 -14 -87q-5 -56 -16 -90q-3 -8 -6 -11q-7 -4 -39 -23q-6 23 -8 27q-6 24 -22 34q-18 11 -19 33q-1 8 -13 25l-1 -9q3 -7 0 -34t-3 -34q0 -25 -1 -35q0 -8 1.5 -28.5t-0.5 -27.5q0 -1 3 -18
q-3 -6 -3 -14q17 14 18 15q3 1 21 5q16 -15 18 -16q1 -1 21 -8q-8 -15 4 -20q0 1 3.5 3.5t6.5 4.5q-2 -11 -2 -13q-5 -27 -5 -30q-1 -28 -28 -47q-2 -2 -7 -4l-5 -3q-30 -18 -51 -9q-14 6 -25 0q-3 -2 -20 -2q-3 23 -6 37q-8 49 -10 83q0 17 -2 48t-2 45q-2 34 4 47
q2 6 7.5 19.5t8.5 20.5q35 81 42 95q14 27 38 42q13 7 16 19q1 7 -4 10l-11 6l-11 5q-13 8 -26 1q-24 -13 -34 -21q-23 -20 -36 -37q-29 -41 -37 -57q-3 -5 -11.5 -23.5t-13.5 -27.5q-8 -16 -13 -30q-3 -7 -18 -44q-18 -46 -27 -68q0 -1 -2 -12q1 0 2 -1l5 5q4 4 7 6
q5 4 7 5h15q-4 -9 -3.5 -11.5t7.5 -7.5q5 -4 4 -10q-1 -3 -3 -14q-1 -8 10 -14q5 -3 14 3q14 11 17 25q3 16 17 19q1 -5 1 -6q0 -25 7 -70q9 -55 9 -59q2 -9 3.5 -25.5t2.5 -24.5q1 -5 5 -14q2 -3 5 -4h15q5 4 5 12t1 15q16 -18 48 -29q29 -10 58 -5q58 10 93 54
q24 30 31 56l4 6l5 -6q12 -32 35 -57q26 -28 41 -35q4 -2 5.5 -1t2.5 6l1 5l10 -5q22 -10 25 -10q27 -4 55 7q19 8 30 1q1 -1 4.5 -1.5t4.5 -0.5q9 -3 11 -4q5 -4 17 -13t18 -13q8 -5 22 -11q3 -2 10 0.5t8 2.5q9 1 11 12q4 22 -21 40zM2112 579q2 15 3 33t1 31t-0.5 34
t-0.5 32q0 12 -1 45q-1 12 12 17q17 -20 36 -64q28 -63 41 -94q5 -12 7 -26q3 -14 -7.5 -23t-24.5 -5q-10 4 -21 0q-10 -2 -14 3q-11 10 -26 6h-3h-2v11zM2078 434l2 10l1 -2q1 -3 0.5 -4.5t-3.5 -3.5zM340 467q17 16 33 34q30 34 46 56q7 9 19 27t19 27q5 6 23 23q1 0 12 6
q2 -11 2 -12l4 -76q2 -26 -2 -34q-1 -3 -3.5 -9t-2.5 -8q-5 -13 8 -20q3 -1 17 -11q2 -1 13 -9q0 -8 7 -15l2 2q4 8 6 9t13 -1q18 -3 29 -2q20 2 32 12q3 2 5 7.5t4 7.5q3 4 2 11q-4 16 -6.5 34.5t-4 31.5t-3.5 35l-3 33q-3 25 -3 29q-3 45 0 59q1 4 -2 8q-8 15 -26 9
q-7 8 -17 4q-2 -1 -16 1q-1 0 -3.5 1.5t-4.5 1.5q-6 0 -24.5 -0.5t-24.5 0.5q-20 1 -34 5q-12 4 -16 3t-11 -11h-1l-1 -1q-5 1 -18 4.5t-21 3.5q6 -16 -8 -23l6 -9q0 -1 7 -8t9 -12q8 -17 32 -27q1 0 39 -15q-23 -20 -59 -71q-20 -27 -38 -50q-11 -14 -28 -30q-8 -9 -25 -22
q-7 -5 -13 -6l-9 -3q-6 -2 -9 -2.5t-10 0.5l-11 -4q-3 3 -3.5 6.5t0 7.5t0.5 6q-2 17 -6 51.5t-5 51.5q-2 9 0.5 13t10.5 6q1 0 23 6q11 -15 25 -10q12 5 10 24q-2 17 -22 30q-12 9 -39 9q-11 0 -18 1q0 1 -0.5 2t-0.5 2q0 3 1 5q6 22 1 52q-1 6 -3 20t-4 24.5t-7 19.5
q-7 16 -18 15q-13 -1 -25 7q-1 0 -21 10q-5 -15 -6 -16q-5 -7 -4.5 -10.5t8.5 -7.5q6 -3 8 -6t1 -10q0 -7 -2 -25.5t-2 -28.5q-1 -6 -1 -19q0 -4 2 -6.5t6 -1.5q6 1 10 -6q1 -1 4 -5t4 -6q1 -4 2.5 -11t2.5 -9q3 -9 1 -12.5t-11 -6.5q-9 -4 -13 -10q-1 -1 -7 -5
q-34 -24 -40 -27q-14 -10 -21 -7q-6 2 -19 -1q-4 6 -10 13q-1 -1 -3 -2t-3.5 -2t-3.5 -1q-1 -1 -10 -2q-2 7 -4.5 7.5t-7.5 -2.5q-6 -4 -7 -16q0 -10 -7 -22q0 -1 -2.5 -5.5t-3 -6.5t-1.5 -5.5t0 -6.5t4 -6v-2q-2 -4 5 -14t12 -14q29 -27 56 -22q30 6 56 23q31 22 40 26
q1 1 16 14q6 -14 6 -15q4 -31 8 -67q1 -7 -1 -9.5t-8 -5.5q-32 -12 -45 -16q-49 -16 -89 5q-3 2 -5 2q-13 -7 -14 -8q-7 -2 -5 -9l1 -8q-3 1 -6.5 -1.5t-6.5 -0.5q-9 5 -12 -5q-4 -11 1 -20q4 -7 -1 -19q0 -1 -7 -21q14 -16 15 -18q1 2 2 5t2 5l2 4q3 5 5 6q16 1 21 -3
q20 -16 45 -20q19 -3 36 -19l15 -15l10 -10l13 -13q8 -5 12 -3q17 5 21 11q20 23 23 35q2 9 4 20q7 46 7 54q1 12 11 22q23 19 32 29q10 9 14 19q2 6 15 19zM223 330q-4 -13 -5 -18q-2 -17 -17 -11q-8 3 -15 15q23 6 39 26q1 -1 3 -2q-4 -7 -5 -10zM631 413q0 1 2 20l-4 8
q-2 6 -3.5 7.5t-7.5 0.5q-13 -3 -24 -1q-6 2 -20 -3q0 -1 -7 -9q-14 3 -21 -5q-1 -2 -5 -3q-30 -7 -46 -10q-1 5 -4 6t-8 -0.5t-7 -1.5q0 -1 1 -4t2 -5h-7h-8h-7q-6 0 -8 -1q-12 -6 -21 0q-13 -5 -14 -5q-4 1 -9 -2q-1 -1 -10 -6q-6 28 -6 31q-1 8 -3.5 10.5t-9.5 4.5
q-13 2 -18 12q-5 11 -15 3q-4 -4 -5 -6q-6 -27 -6 -33q-1 -14 0 -46q1 -22 3 -31q2 -8 7 -23.5t6 -18.5q4 -14 14 -19l6 1q5 2 8 2q7 2 8.5 1t4.5 -8q2 -2 5.5 -6.5t4.5 -6.5q5 -8 20 -11q7 -2 12.5 5t1.5 13q-1 3 0.5 6t1.5 5q-6 6 -5 9q10 -5 19 -10q1 -1 3 -2.5t3 -2.5
q1 0 7 -4l9 -6q2 -1 24 -17q0 -2 -3 -14t0 -19q3 4 9 12.5t7 10.5l7 -3q5 -3 8 -4q27 -11 29 -12q10 -3 19 2t12 15q1 4 5 17.5t6 21.5q1 2 10.5 32t14.5 45q3 12 12 58zM504 281q-3 2 -10.5 6.5t-11.5 7.5q-16 -7 -32 0q-8 3 -14 4q-9 2 -15 13q-11 20 -18 48q-1 3 -5 23
q28 5 30 5q15 2 28 3q9 1 29.5 2.5t31.5 2.5q3 1 10 2.5t9 1.5q3 0 16 2q-19 -50 -48 -121zM995 41l-20 10q-11 5 -20 -5q-9 -9 -17 -13q-9 -4 -12 -12q-4 -12 -15 -17l-27 -11q-18 -7 -24 -10l-4 1q0 7 1 7q9 21 13 27q12 17 30 13h5q7 3 8 5q2 4 -1 8q-5 8 -18 12.5
t-23 0.5q-20 -9 -31 -28q-2 -4 -10 -17q-15 3 -27 18q-5 6 -9 9q-9 6 -16 -2l-4 -3l-4 -5q-13 -17 -15 -20q-8 -16 -15 -20q5 -4 2 -16t-2 -15q6 -5 8 -9q4 -9 8.5 -11.5t14.5 -0.5q14 3 34 10q1 0 9 7q-5 3 -8 2q-4 0 -12 -2t-13 -3q-8 -2 -16 -1q-7 0 -9 10q-1 5 7 8
q12 5 13 5q5 3 16 7.5t18 9.5t12 12h2l2 -2q-2 -14 6 -29q1 -1 1 -3v-1q4 -18 22 -16q8 0 12 2q34 15 50 23q6 4 8 3.5t6 -6.5q14 -20 34 -8q24 15 34 38q3 6 4 25q1 8 -8 13zM765 4q1 19 23 14q-8 -11 -23 -14zM973 21q-7 -17 -19 -25h-3q-2 5 4 12q8 9 0 18l12 3q9 0 6 -8
zM698 12h-3l-4 2h-3q4 9 5 9q1 3 5 7t6 5l4 6q-33 -25 -60 -34q-2 10 -2 11v29q1 8 2 19q2 8 8 9q26 3 30 4q15 1 21.5 -3.5t12.5 -20.5l4 10q-10 19 -14 22q-12 10 -22 8q-23 -5 -38 1q-19 7 -30 2q-17 -6 -15 -20q1 -4 1 -10q-2 -44 13 -139q1 -6 4 -7q6 -2 10 -10
q3 -6 5 -8q11 -11 16 3q2 6 2 11q-1 16 -3 32q0 5 -1.5 14t-2.5 10q-1 8 4 11q26 14 45 12q13 -1 19 -11.5t0 -22.5q-3 -6 -11 -15q-4 -5 -26 -17q-6 -3 -11 -11q-4 -7 4 -8q4 -1 8 1q46 24 47 67q1 11 -9 21t-21 11zM619 65q-1 0 -2 1h-1v9h2h2zM1214 16q10 8 4 23
q-7 16 -18 13q-2 0 -6 1q-12 5 -28 -6q-4 -3 -11 -9.5t-9 -8.5q-1 0 -18 -13q-1 2 -2 6t-2 6q-3 9 -4 10q-3 2 -21 17q-6 -3 -11.5 -7.5t-8.5 -8t-9.5 -11t-9.5 -10.5v7q0 4 -0.5 6.5t-0.5 4.5q-2 8 -7 10.5t-11 -1.5q-10 -8 -20 -6q-8 -35 -8 -37q-1 -9 0 -36q1 -9 10 -10
q1 7 1 10q1 33 1 40q0 13 17 31q7 8 10 -3q3 -9 3 -20v-18v-15q0 -1 2 -8q5 4 5 15q1 27 19 44l7 4l2 -2l-2 -6q-1 -6 -1 -8q-2 -22 -2 -38q0 -4 6 -8t6 -9q1 -13 14 -16q10 -2 16 9q2 3 3 6q3 7 5 8t9 -1q24 -7 47 -4q9 2 20 6q5 2 5.5 6.5t-4 8t-9.5 5.5l-18 4q12 6 14 8
q8 5 15 11zM1150 -1q-3 5 2 12q12 15 27 24q14 7 25 -3q-5 -6 -6 -6q-6 -3 -48 -27zM1795 37q-1 1 -32 5q-6 0 -13 1q3 3 6 8t4 7q6 9 6 10q2 6 -2 10q-5 4 -10 -2q-5 -9 -17 -10q-3 0 -7 -2q-7 -4 -13 3q-11 12 -21 8q-1 -1 -7 2q-10 4 -18 -5q-8 -10 -9 -12l-15 -35
q7 -10 9 -13q6 -10 16.5 -13.5t20.5 0.5q1 1 8 7q-21 3 -22 3q-10 4 -14 14q1 0 3 1.5t3 2.5q6 2 17.5 7t17.5 7q7 3 12 0t6 -11q1 -14 14 -16q3 -1 21 -1h13q-4 -14 -17 -25.5t-29 -15.5q-1 -1 -4 -6t-5 -8l8 -8q20 -11 43 -1q38 17 47 59q3 11 -2.5 19t-17.5 10zM1664 39
q-5 10 1 17q11 12 27 6q-6 -3 -14 -12t-14 -11zM1438 9q-1 3 -4 10.5t-4 11.5q-7 12 -20 7q-4 -2 -6 -2q-11 0 -24 -9q-7 -4 -12 3q-1 2 -5 9.5t-6 10.5q-7 10 -11.5 11t-13.5 -7q-8 -7 -9 -7q-9 -2 -12 -14q-7 -41 -9 -55q-1 -11 2 -25t15 -5q6 4 5 12q-2 19 8 52
q5 14 17 21l4 -4q7 -28 6 -37q-1 -6 0.5 -11.5t5.5 -15t4 -10.5q3 -9 12 -2q9 8 8 19q-1 7 0 16q1 11 8.5 20t17.5 11q5 0 8 -4q1 -1 5 -8q0 -2 4.5 -13.5t6.5 -17.5q5 -10 13 -10q3 6 -2 16q-5 11 -12 27zM1631 49q-8 3 -10 15l-3 6q-2 4 -3 5q-1 3 -3.5 9.5t-3.5 8.5
q-1 4 -3 7l-4 -7q-4 -16 -6 -28q-1 -8 -3 -10.5t-9 -2.5q-5 0 -10 -2.5t-8 -5t-8 -7t-8 -6.5q9 -7 17 -7q3 -1 8 -1h8q7 0 9 -2.5t1 -9.5q0 -1 -1 -3.5t-1 -3.5q-3 -18 -3 -24q-1 -9 8 -9q6 0 10 -8t10 -12q8 -6 12 3t6 17q1 5 -1 7q-4 3 -6 7.5t-2.5 7t-0.5 9.5v8
q0 22 10 29q3 2 2.5 5t-4.5 5zM1543 8q-6 19 -18 23l-3 3l-3 3q-13 9 -16 11q-15 5 -24 -0.5t-11 -21.5q-1 -4 -1 -5q5 -29 6 -32q4 -12 13 -15t19 5l2 2q1 1 2 1q6 6 9.5 5.5t7.5 -8.5q8 -14 21 -17l4 8q8 8 -1 24q0 1 -3 6t-4 8zM1495 20l-2 3q4 2 5 2v-1l1 -1
q-1 -2 -4 -3zM994 731q1 1 8 7q-7 0 -8 -1t0 -6z" />
    <glyph glyph-name="uniE63A" unicode="&#xe63a;" 
d="M440 828q37 0 70 -20.5t53 -48.5q9 6 22 18.5t26 19.5t32 8q14 -7 25.5 -18t18 -18t22 -12t40.5 -4v-8q-10 -18 -29.5 -35.5t-36.5 -29.5t-34.5 -31.5t-25.5 -41.5h-226q-7 27 -27.5 51t-45.5 47.5t-36 45.5q4 11 11.5 16t18.5 3t20.5 -5t21.5 -8t17 -6l11 17
q7 13 11 18.5t10.5 14t14 15t16.5 12.5zM400 570h223q9 -23 32.5 -44.5t48.5 -36t52.5 -34.5t41.5 -40q22 -32 29.5 -76t9.5 -106t9 -101q1 -5 19 -53.5t10 -69.5q-8 -16 -29 -26.5t-38.5 -14t-53 -8t-45.5 -6.5q-81 -13 -195 -15t-225 15.5t-147 54.5q1 27 15 66t17 54
q7 39 9 101.5t9.5 108t29.5 76.5q15 22 41 42.5t49 34.5t48 35t40 43zM474 458q0 -4 -1 -16t-2 -18q-30 -3 -52 -26.5t-23.5 -52.5t21.5 -56q15 -14 72.5 -32t70.5 -39q5 -8 6 -23q-7 -13 -14 -17q-27 -27 -89 -3q-8 19 -20 23.5t-43 2.5q2 -36 19 -51t55 -27v-31h72
q0 6 1 17.5t2 16.5q27 3 49 22.5t27 46.5t-13 57q-13 18 -40.5 31.5t-61.5 25t-50 21.5q-2 9 -6 25q2 3 4 6.5t4.5 7.5t3.5 6q15 6 30 8.5t30 1.5t26 -10t14 -25h54q-2 22 -14 36t-25 19.5t-24 19t-11 33.5h-72z" />
    <glyph glyph-name="uniE63B" unicode="&#xe63b;" 
d="M512 862q-97 0 -185.5 -38t-152.5 -102t-102 -152.5t-38 -185.5t38 -185.5t102 -152.5t152.5 -102t185.5 -38t185.5 38t152.5 102t102 152.5t38 185.5t-38 185.5t-102 152.5t-152.5 102t-185.5 38zM512 -52q-89 0 -169.5 34.5t-139 93t-93 139t-34.5 169.5t34.5 169.5
t93 139t139 93t169.5 34.5t169.5 -34.5t139 -93t93 -139t34.5 -169.5t-34.5 -169.5t-93 -139t-139 -93t-169.5 -34.5zM408 526q0 28 -20 48t-48 20t-48 -20t-20 -48t20 -48t48 -20t48 20t20 48zM340 486q-17 0 -29 12t-12 28.5t12 28.5t29 12t28.5 -12t11.5 -28.5
t-11.5 -28.5t-28.5 -12zM593 540h145v-28h-145v28zM550 219l-2 -1q-20 -10 -43.5 -14t-40.5 -2.5t-33.5 6t-22.5 7t-9 3.5l-13 -24q38 -20 90 -20q45 0 84 19q8 3 18 8.5t31 21.5t38.5 35.5t33.5 53.5t21 73l-27 4q-5 -36 -20 -66.5t-30 -48t-34.5 -31.5t-27.5 -18t-13 -6z
" />
    <glyph glyph-name="uniE63E" unicode="&#xe63e;" 
d="M674 498q0 68 -47 114.5t-115 46.5t-115 -46.5t-47 -114.5t47 -115t115 -47t115 47t47 115zM674 498zM512 896q-104 0 -199 -40.5t-163.5 -109t-109 -163.5t-40.5 -199t40.5 -199t109 -163.5t163.5 -109t199 -40.5t199 40.5t163.5 109t109 163.5t40.5 199t-40.5 199
t-109 163.5t-163.5 109t-199 40.5zM705 207q15 0 23.5 -9t8.5 -23q0 -15 -9 -23.5t-23 -8.5h-161v-66q0 -15 -9 -23.5t-23 -8.5q-15 0 -23.5 9t-8.5 23v64h-161q-15 0 -23.5 8.5t-8.5 22.5q0 15 9 23.5t23 8.5h161v68q-82 13 -137.5 76t-55.5 148q0 93 65.5 159t159.5 66
t159.5 -66t65.5 -159q0 -85 -55.5 -148t-137.5 -76v-68h161v3zM705 207z" />
    <glyph glyph-name="uniE643" unicode="&#xe643;" 
d="M273 300l432 431l34 -34l-431 -431zM705 -130l-432 431l35 34l431 -431z" />
    <glyph glyph-name="uniE645" unicode="&#xe645;" 
d="M512 896q-104 0 -199 -40.5t-163.5 -109t-109 -163.5t-40.5 -199q0 -155 86 -284q8 -12 21.5 -14.5t25 5t14 21.5t-4.5 25q-75 112 -75 247q0 90 35 172.5t95 142.5t142.5 95t172.5 35t172.5 -35t142.5 -95t95 -142.5t35 -172.5t-35 -172.5t-95 -142.5t-142.5 -95
t-172.5 -35q-135 0 -248 75q-11 8 -24.5 5t-21.5 -14.5t-5 -25t14 -20.5q129 -87 285 -87q104 0 199 40.5t163.5 109t109 163.5t40.5 199t-40.5 199t-109 163.5t-163.5 109t-199 40.5zM323 361q-21 0 -21 18v51q0 21 21 21h139q-5 -48 -25 -90h-114zM524 451h176q12 0 18 -5
q6 -4 6 -16v-54q0 -15 -24 -15h-196q14 42 20 90zM335 238q-38 -25 -108 -46v-53q29 3 46 7q55 13 105 50q53 39 98 109h46v-104q0 -32 19 -46q17 -14 43 -14h206v58h-186q-12 0 -18 4q-5 5 -5 19l1 83h138q28 0 45 16q15 15 15 44v82q0 30 -16 45q-10 9 -31 14l16 37
q7 16 7 27q0 22 -18 39q-18 18 -49 18h-329l8 30h-57q-15 -43 -32 -63q-20 -25 -46 -30v-58q35 10 58 26q21 14 40 39h334q18 0 23 -3q7 -3 7 -10t-6 -20l-14 -30h-349q-46 0 -63 -16q-18 -17 -18 -48v-76q0 -47 39 -60q9 -3 37 -3h82q-35 -45 -68 -67z" />
    <glyph glyph-name="uniE646" unicode="&#xe646;" 
d="M281 463q-3 10 -3 28q-64 -3 -74 -3q0 -2 5 -10q11 -19 14 -31q2 -10 -1 -21q13 0 38.5 -0.5t37.5 -0.5q-4 11 -8 19q-8 16 -9 19zM297 142q2 -3 8.5 -12t9.5 -13t8 -11.5t8 -14t5 -13.5q15 14 17 15q5 4 20 11q31 12 39 18q24 15 32.5 37t-2.5 41t-33 20q-7 1 -14 -1
t-17.5 -6t-13.5 -5q-15 25 -33 31q-17 6 -33 -6q-22 -18 -21 -46q1 -20 20 -45zM358 455q3 -18 -1 -29q1 0 23.5 -0.5t34.5 -0.5q30 43 44 73q-12 0 -53.5 -2t-63.5 -3q10 -15 16 -38zM881 812h-738q-59 0 -101 -27.5t-42 -65.5v-838q0 -38 42 -65.5t101 -27.5h738
q59 0 101 27.5t42 65.5v838q0 38 -42 65.5t-101 27.5zM618 310q-1 -11 -9.5 -19.5t-20.5 -10.5q-18 -2 -31 13q-7 9 -7 27q0 22 -3 28q-4 8 -18 11q-8 1 -16.5 1t-19.5 -0.5t-17 -0.5h-162q-1 -4 -4 -12t-3 -10h122q47 0 57 -2q16 -4 23 -13q7 -11 1 -29q-4 -12 -23 -18
q-18 -4 -57 -4h-149l-5 -9l-5 -11h53h62h53q7 0 25.5 0.5t28.5 -0.5q16 0 26 -3q14 -4 21 -18q6 -14 -2 -33q-10 -23 -34 -44q-10 -9 -22 -18t-29 -20.5t-23 -16.5q18 -10 59 -14q11 -1 40 -2.5t44 -3.5q20 -4 26 -11q11 -15 4 -36q-3 -10 -12 -15q-10 -6 -32 -8h-15
q-37 2 -86 14q-55 14 -95 32q-12 4 -13 4q-8 -1 -36 -9q-61 -19 -70 -21q-53 -11 -92 -15q-32 -2 -49 1q-10 1 -20 12q-10 10 -8 21q2 14 18 25q15 9 34 11q88 6 120 13q19 5 27 11q-12 12 -35 34t-34 33q-7 -5 -22 -17t-27 -21t-23 -16q-15 -10 -33 -19q-18 -8 -34 -5
q-10 1 -17 9t-9 19v5q2 15 23 30q9 7 61 34q8 4 25 18q25 21 41 39q10 12 14 22q-37 0 -48 4q-15 5 -17 19q-3 18 6 28q9 9 28 12q11 2 31.5 1.5t32.5 0.5q1 4 3.5 12t3.5 10q-88 1 -92 1q-20 -1 -28 -7q-7 -7 -6 -26q1 -21 -6 -31q-11 -18 -33 -15q-10 1 -20 9q-6 5 -10 21
q-8 32 -1 63q6 29 24 41q10 7 29 9q6 1 29 1h29q-3 9 -11 22t-9 21q0 3 -0.5 10t-0.5 10q-5 0 -19 1.5t-22 1.5q-15 2 -22 17q-5 13 0.5 27t18.5 19q8 3 43 3q109 0 217 6q99 5 155 14q23 4 25 4h6q12 -2 19 -9q13 -13 13 -26q1 -13 -12 -23q-16 -11 -41 -15q5 -15 3 -26
q-1 -12 -9 -26q-16 -25 -18 -31q10 0 35 0.5t35 -0.5q20 -1 38 -20q13 -14 15 -26q2 -10 2 -26q1 -26 -2 -43zM973 378q-3 -14 -13 -14h-62h-64v-63v-64q1 -6 -6 -10q-4 -1 -16 -2h-12q-10 0 -12 1q-5 0 -9.5 3.5t-3.5 7.5v64v63h-63h-63q-6 0 -10 6q-2 4 -2 16v12v12
q0 6 3.5 10t8.5 4h63h63v124q-1 5 3 8.5t9 4.5h9h10l17 -1q12 -2 11 -11v-63v-62h64h62q9 0 13 -14v-32z" />
    <glyph glyph-name="uniE649" unicode="&#xe649;" 
d="M543 424v176q-16 1 -25 3h-2h2h-1h-1q-21 -3 -35 -4v-175h-365v140q0 17 12 28.5t28 11.5h167q-78 16 -80 63q-1 36 33 69.5t81.5 23t84 -41t73.5 -75.5q24 30 44 50.5t54 41.5t68 26q44 5 77.5 -28t28.5 -66q-8 -47 -83 -63h164q16 0 28 -11.5t12 -28.5v-140h-365z
M365 723q-43 17 -69 -25q-17 -29 -3 -44q38 -39 183 -24q-59 72 -111 93zM737 655q9 11 6 26.5t-14.5 27.5t-28 17.5t-35.5 -3.5q-54 -25 -110 -93q39 -3 76 -1q88 3 106 26zM483 6h-297q-15 0 -25.5 11t-10.5 26v353h333v-390zM874 43q0 -15 -10.5 -26t-25.5 -11h-297v390
h333v-353z" />
    <glyph glyph-name="uniE650" unicode="&#xe650;" 
d="M827 812h-630q-82 0 -139.5 -57.5t-57.5 -139.5v-630q0 -82 57.5 -139.5t139.5 -57.5h630q82 0 139.5 57.5t57.5 139.5v630q0 82 -57.5 139.5t-139.5 57.5zM945 -15q0 -49 -34.5 -83.5t-83.5 -34.5h-630q-49 0 -83.5 34.5t-34.5 83.5v630q0 49 34.5 83.5t83.5 34.5h630
q49 0 83.5 -34.5t34.5 -83.5v-630zM826 339h-275v275q0 17 -11.5 28.5t-27.5 11.5t-28 -11.5t-12 -28.5v-275h-274q-17 0 -28.5 -11.5t-11.5 -27.5t11.5 -27.5t28.5 -11.5h274v-275q0 -17 12 -28.5t28 -11.5t27.5 11.5t11.5 28.5v275h275q17 0 28.5 11.5t11.5 27.5
t-11.5 27.5t-28.5 11.5z" />
    <glyph glyph-name="uniE651" unicode="&#xe651;" 
d="M530 3h-333q-37 0 -62.5 25.5t-25.5 62.5v645q0 37 25.5 63t62.5 26h545q36 0 62 -26t26 -63v-398q0 -6 -4 -10t-10 -4t-10 4t-4 10v398q0 25 -17.5 42.5t-42.5 17.5h-545q-25 0 -42.5 -17.5t-17.5 -42.5v-645q0 -25 17.5 -42.5t42.5 -17.5h333q6 0 10 -4t4 -10t-4 -10
t-10 -4zM745 -53q-68 0 -116 48t-48 116t48 116.5t116 48.5t116.5 -48.5t48.5 -116.5t-48.5 -116t-116.5 -48zM745 247q-56 0 -96 -39.5t-40 -96t40 -96.5t96 -40t96 40t40 96.5t-40 96t-96 39.5zM745 97q-6 0 -10 4.5t-4 9.5v85q0 5 4 9.5t10 4.5t10 -4.5t4 -9.5v-85
q0 -5 -4 -9.5t-10 -4.5zM813 97h-68q-6 0 -10 4t-4 10t4 10t10 4h68q6 0 10.5 -4t4.5 -10t-4.5 -10t-10.5 -4zM452 443q-5 0 -9 3q-11 9 -2 20l143 187q8 11 20 2q11 -9 2 -20l-143 -186q-4 -6 -11 -6zM452 169q-6 0 -10 4.5t-4 9.5v270l-140 182q-9 11 2 20q12 9 20 -2
l143 -187q3 -4 3 -8v-274q0 -6 -4 -10.5t-10 -4.5zM598 440h-292q-6 0 -10.5 4t-4.5 10t4.5 10t10.5 4h292q6 0 10.5 -4t4.5 -10t-4.5 -10t-10.5 -4zM621 334h-338q-6 0 -10.5 4t-4.5 10t4.5 10t10.5 4h338q6 0 10 -4t4.5 -10t-4 -10t-10.5 -4z" />
    <glyph glyph-name="uniE653" unicode="&#xe653;" 
d="M270 589q0 100 71 171t171 71t171 -71t71 -171v-48h-484v48zM828 541h-9v49v2q-1 126 -91 215t-216 89t-216 -89t-91 -215v-2v-49h-9q-49 0 -84.5 -35t-35.5 -85v-160q0 -14 9.5 -23.5t23 -9.5t23.5 9.5t10 23.5v160q0 23 16 39t38 16h632q22 0 38 -16t16 -39v-322
q0 -80 -32 -115.5t-105 -35.5h-466q-73 0 -105 35.5t-32 115.5q0 14 -10 23.5t-23.5 9.5t-23 -9.5t-9.5 -23.5q0 -217 203 -217h466q203 0 203 217v322q0 50 -35.5 85t-84.5 35zM512 60q19 0 32 13.5t13 32.5v109q34 25 34 67q0 34 -23 57.5t-56 23.5t-56 -23.5t-23 -57.5
q0 -42 34 -67v-109q0 -19 13 -32.5t32 -13.5z" />
    <glyph glyph-name="uniE654" unicode="&#xe654;" 
d="M684 282q-21 -18 -30.5 -26.5t-17.5 -22.5t-8 -27v-27h-83v225l89 90q10 9 9.5 22.5t-10 23t-23 9.5t-22.5 -9l-76 -76l-86 87q-10 9 -23.5 9t-23 -9.5t-9.5 -23t9 -22.5l100 -101v-225h-83v27q0 14 -9 29t-18.5 24t-31.5 27q-22 19 -35 30.5t-33.5 35.5t-32 45.5
t-20.5 54.5t-9 69q0 128 89.5 219t215.5 91t215.5 -91t89.5 -219q0 -37 -9.5 -70.5t-21.5 -56t-33 -47t-34 -36t-35 -29.5zM580 46h-136q-19 0 -33 14t-15 33v3v18h232v-18q0 -21 -14 -35.5t-34 -14.5zM512 896q-100 0 -185.5 -50.5t-135 -137t-49.5 -187.5q0 -45 11 -85.5
t25 -67.5t39 -56t39.5 -42t38.5 -34q31 -26 36 -33v-48q-1 -5 -1 -8.5t1 -8.5v-39v-3q0 -48 33 -81.5t80 -33.5h136q47 0 80 33.5t33 81.5v43q1 4 1 7.5t-1 8.5v47q5 6 33 30q25 21 39.5 34t40 42.5t39.5 57t25.5 69t11.5 86.5q0 101 -49.5 187.5t-135 137t-185.5 50.5z
M665 -52h-306q-13 0 -22.5 -9.5t-9.5 -23t9.5 -23t22.5 -9.5h306q13 0 22.5 9.5t9.5 23t-9.5 23t-22.5 9.5z" />
    <glyph glyph-name="uniE657" unicode="&#xe657;" horiz-adv-x="1085" 
d="M829.5 -81q-85.5 0 -146 61t-60.5 146.5t60.5 146.5t146 61t146.5 -61t61 -146.5t-61 -146.5t-146.5 -61zM829.5 374q-102.5 0 -175 -72.5t-72.5 -175t72.5 -175t175 -72.5t175 72.5t72.5 175t-72.5 175t-175 72.5zM915 271l-84 -83l-84 83q-6 6 -14.5 5.5t-14 -6
t-5.5 -14t6 -14.5l73 -72h-47q-8 0 -14 -6t-6 -14.5t6 -14t14 -5.5h66v-38h-66q-8 0 -14 -5.5t-6 -14t6 -14.5t14 -6h66v-67q0 -8 6 -14t14 -6t14 6t6 14v67h65q9 0 14.5 6t5.5 14.5t-5.5 14t-14.5 5.5h-65v38h65q9 0 14.5 5.5t5.5 14t-5.5 14.5t-14.5 6h-46l73 72
q6 6 6 14.5t-6 14t-14 6t-14 -5.5zM593 422.5q2 -12.5 14 -15.5q32 -10 63 -24q4 -2 8 -2q13 0 18 11q4 8 1 16t-10 11q-16 8 -32 14q43 37 67 89t24 110q0 73 -37 135q-5 7 -13 9t-15 -2t-9 -12.5t2 -15.5q32 -52 32 -114q0 -49 -20.5 -94t-57.5 -76l-27 -20
q-10 -7 -8 -19.5zM482 856q62 0 114 -32q8 -4 16 -2t12 9t2 15t-9 13q-62 37 -135 37q-110 0 -187 -77.5t-77 -186.5q0 -58 23.5 -110t66.5 -89q-138 -54 -223 -177.5t-85 -272.5q0 -8 6 -14t14 -6t14 6t6 14q0 146 88.5 264.5t227.5 159.5q12 4 14 16.5t-9 19.5
q-48 31 -75.5 81t-27.5 108q0 93 65.5 158.5t158.5 65.5z" />
    <glyph glyph-name="uniE658" unicode="&#xe658;" 
d="M356.5 476q27.5 0 47 19.5t19.5 47.5t-19.5 47.5t-47 19.5t-47.5 -19.5t-20 -47.5t20 -47.5t47.5 -19.5zM735 543q0 28 -20 47.5t-47.5 19.5t-47 -19.5t-19.5 -47.5t19.5 -47.5t47 -19.5t47.5 19.5t20 47.5zM249 326.5q-13 -4.5 -19 -17t-1 -25.5q32 -90 110 -145.5
t173 -55.5t173 55.5t110 145.5q5 13 -1 25.5t-19 17t-25.5 -1.5t-17.5 -19q-25 -70 -85.5 -113t-134.5 -43t-134.5 43t-85.5 113q-5 13 -17.5 19t-25.5 1.5zM512 896q-104 0 -199 -40.5t-163.5 -109t-109 -163.5t-40.5 -199q0 -155 86 -284q8 -12 21.5 -14.5t25 5t14 21.5
t-4.5 25q-75 112 -75 247q0 90 35 172.5t95 142.5t142.5 95t172.5 35t172.5 -35t142.5 -95t95 -142.5t35 -172.5t-35 -172.5t-95 -142.5t-142.5 -95t-172.5 -35q-135 0 -248 75q-11 8 -24.5 5t-21.5 -14.5t-5 -25t14 -20.5q129 -87 285 -87q104 0 199 40.5t163.5 109
t109 163.5t40.5 199t-40.5 199t-109 163.5t-163.5 109t-199 40.5z" />
    <glyph glyph-name="uniE65A" unicode="&#xe65a;" 
d="M512 896q-104 0 -199 -40.5t-163.5 -109t-109 -163.5t-40.5 -199q0 -157 87 -286q8 -12 21.5 -14.5t25 5t14.5 21.5t-5 25q-76 113 -76 249q0 90 35 172.5t95 142.5t142.5 95t172.5 35t172.5 -35t142.5 -95t95 -142.5t35 -172.5t-35 -172.5t-95 -142.5t-142.5 -95
t-172.5 -35q-140 0 -254 79q-11 8 -24.5 5.5t-21.5 -14t-5.5 -25t13.5 -21.5q131 -91 292 -91q104 0 199 40.5t163.5 109t109 163.5t40.5 199t-40.5 199t-109 163.5t-163.5 109t-199 40.5zM512 658q-28 0 -47.5 -19.5t-19.5 -47t19.5 -47t47.5 -19.5t47.5 19.5t19.5 47
t-19.5 47t-47.5 19.5zM512 466q-23 0 -39.5 -16.5t-16.5 -39.5v-267q0 -23 16.5 -39t39.5 -16t39.5 16t16.5 39v267q0 23 -16.5 39.5t-39.5 16.5z" />
    <glyph glyph-name="uniE65B" unicode="&#xe65b;" 
d="M352 148q-3 -12 -3 -25q1 -30 -24 -41q-31 -16 -74 -19q-34 2 -38 42q2 22 23 36q-13 10 -13 31q0 18 20 38q-29 2 -29 30q0 18 23 48q16 19 16 25q0 1 -2 5q-3 5 -3 8q0 8 5 14q4 -2 8 -2q5 0 16 3t17 3q32 -2 34 -31q0 -12 -11 -25q19 -5 28 -25q23 30 23 44q0 3 -2 7
q-5 6 -5 11q0 6 2 11q7 -3 21 3q9 5 15 5q41 -1 42 -31v-6q-1 -3 -1 -6q53 -1 52 -87v-10q0 -65 -8 -105t-51 -40q-39 0 -47 35q-5 19 -11 29q0 1 -3 3q-4 5 -4 7q2 0 12 -1q18 -3 26 -3q27 0 26 62v8v6q2 40 -15 40q-7 0 -12 -1q-15 -15 -32 -16q-14 0 -26 7
q-5 -19 -40 -37q-19 -11 -19 -15q0 -2 3 -2q21 2 51 21q-1 -10 -4 -22q-4 -45 -79 -47q-12 0 -22 6q-3 -6 -3 -13q0 -8 14 -8q46 2 104 30zM285 251q6 0 11 1q16 11 16 20q0 5 -4 9q-3 -2 -11 -9q-18 -12 -16 -18q1 -3 4 -3zM352 223h9q56 0 56 -40q-1 -34 -32 -35
q-30 1 -31 35q0 3 1 10.5t1 9.5q0 11 -4 20zM536 317v7q7 -1 18 6q13 8 25 8q29 0 33 -28q61 0 59 -44q0 -33 -32 -33q-25 2 -28 32q0 4 2 11q1 6 1 10q0 9 -2 16q-3 -39 -22 -74l2 -2q5 -12 5 -97q1 -62 -27 -62q-34 2 -35 56q0 14 5 44q3 26 3 38q-13 0 -21 5q24 43 24 79
q0 6 -5 12q-6 6 -5 16zM735 306q0 -9 -2 -19q-3 -7 -3 -17q24 19 24 30q-1 12 -18 17q8 1 19 1q50 -4 53 -42q-6 -31 -54 -38q-14 0 -26 7v-13h19q14 1 21 1q29 -3 32 -33q0 -20 -29 -20q-6 0 -21 1h-20v-10h16h8q28 1 42 -6.5t13 -25.5q-1 -24 -27 -26q-24 0 -48 2v-21
q-2 -34 -33 -35q-34 0 -34 37v15q-15 -3 -30 -3q-38 0 -38 42q-1 19 26 35q-6 -7 -6 -16q0 -7 14 -7q19 0 37 3q0 2 1 6v6q-10 -2 -22 -2q-33 -1 -39 48q12 -1 24 -1q19 0 41 4v15q0 48 -4 73q-2 15 -14 15q-2 0 -6 -2h-4q11 15 40 16q47 -1 48 -37zM555 500q14 0 12 10
q-3 6 -15 7q-9 -1 -11 -13q0 -4 14 -4zM868 800h-712q-33 0 -56 -23.5t-23 -55.5v-674q0 -32 23 -55.5t56 -23.5h712q33 0 56 23t23 56v674q0 32 -23 55.5t-56 23.5zM140 715q0 18 14 30.5t33 12.5h660l-3 1q18 0 28.5 -12t10.5 -32v-9l-257 -133q-17 34 -50 55t-72 21
q-38 0 -69.5 -19t-49.5 -51l-245 127v9zM552 484q21 0 32 4q8 -15 -34 -16q-33 -1 -33 26q2 31 28 34q41 2 41 -31q0 -11 -39 -11h-5l-1 -1q0 -4 11 -5zM509 488q4 -16 -13 -15q-13 -1 -11 12q0 2 1 6q3 23 -2 27q-1 3 0 6q4 -1 10 2q4 2 7 2q9 -1 10 -9v-9q-1 -3 -1 -5
q0 -1 -1 -3q-1 -9 0 -14zM500 532q-19 0 -18 13q0 10 12 10q19 1 19 -14q-1 -8 -13 -9zM463 486q3 -14 -12 -14q-17 0 -12 14q2 9 2 18h-1v2q-15 -2 -15 11q-1 5 2 8q4 -5 13 1q1 4 0 8v1l-1 1l-2 4v2q0 3 1 4q4 -2 9 1q4 1 6 2q14 -1 10 -22q12 0 16 -5q2 -3 2 -7
q1 -8 -18 -8v-2v-19zM907 63q0 -23 -16 -39.5t-39 -16.5h-680q-23 0 -39 16.5t-16 39.5v620l255 -132q-5 -19 -5 -39q0 -57 40 -97t96.5 -40t97 40t40.5 97q0 16 -4 31l270 141v-621z" />
    <glyph glyph-name="uniE65C" unicode="&#xe65c;" 
d="M992 316q-9 47 -38 103.5t-88.5 125t-134.5 117.5q49 66 34 123q-9 35 -33.5 58.5t-62.5 34t-74.5 14.5t-84.5 4v0q-49 0 -85 -4t-74 -14.5t-62.5 -34t-33.5 -58.5q-15 -57 35 -125q-74 -49 -132.5 -117t-87.5 -124.5t-38 -102.5q-27 -133 26 -234q10 -19 30 -19
q9 0 16 4q13 7 17 20.5t-3 25.5q-42 81 -19 190q6 29 24.5 68t49 83t78.5 88.5t105 77.5q4 3 8 8q1 0 1 1q10 9 10.5 23.5t-9.5 24.5q-25 25 -37.5 49.5t-7.5 41.5q3 12 11 21t27.5 18.5t57.5 15t93 5.5v0q55 0 93 -5.5t57 -15t27.5 -18.5t11.5 -21q4 -17 -8 -41.5
t-37 -49.5q-10 -10 -10 -24.5t10 -23.5q6 -6 14 -8v-1q57 -33 105 -77.5t78.5 -88.5t49 -82.5t24.5 -68.5q28 -138 -46 -229q-51 -63 -147 -98t-219 -36q-154 1 -262 53q-12 6 -25.5 1.5t-19.5 -17.5t-1.5 -26t17.5 -19q117 -57 280 -60h4h4h2h3h3h2h1q137 3 244 44t167 115
q95 115 60 285zM403 257q-14 0 -24 -10t-10 -24t10 -24t24 -10h77v-75q0 -15 10 -25t24 -10t24 10t10 25v75h73q14 0 24 10t10 24t-10 24t-24 10h-73v48h73q14 0 24 10t10 24t-10 24t-24 10h-50l59 55q10 10 10.5 24t-9.5 24.5t-24 11t-24 -9.5l-70 -66l-69 66
q-10 10 -24 9.5t-24 -11t-9.5 -24.5t10.5 -24l59 -55h-53q-14 0 -24 -10t-10 -24t10 -24t24 -10h77v-48h-77z" />
    <glyph glyph-name="uniE65E" unicode="&#xe65e;" 
d="M954 -58h-442h-442v22q13 31 51 57t99 46q72 24 153 33q34 4 54 32l7 12l3 13q10 42 -25 92q-6 9 -15 15q-49 40 -81 109q-18 38 -58 43q-4 2 -11.5 12t-11.5 26q-3 13 -2.5 23.5t2.5 16t4 7.5q36 22 36 65q-3 126 59 193t178 67t178 -67t59 -193q0 -43 36 -64q2 -2 4 -8
t2.5 -16.5t-2.5 -23.5q-3 -11 -8 -20t-9 -13t-6 -5q-40 -5 -58 -43q-32 -69 -81 -109q-9 -6 -15 -15q-35 -50 -25 -93l3 -13l7 -11q19 -28 54 -32q81 -9 153 -33q61 -20 99 -46q39 -26 51 -57v-22zM1022 -18q-19 55 -79 97q-47 32 -117 55q-79 25 -167 35q-3 1 -4 2v1
q-3 12 14 37l1 1q63 49 102 134q1 3 4 3q27 4 49.5 29t30.5 61q10 40 0.5 74.5t-34.5 49.5q-3 1 -3 4q3 154 -77 241q-83 90 -230 90t-230 -90q-80 -87 -77 -241q0 -3 -3 -4q-25 -15 -34.5 -49.5t0.5 -74.5q8 -36 30.5 -61t49.5 -29q3 0 4 -3q39 -85 102 -134l1 -1
q17 -25 14 -37v-1q-1 -1 -4 -2q-88 -10 -167 -35q-70 -23 -117 -55q-60 -42 -79 -97q-2 -6 -2 -12v-54q0 -18 12.5 -31t30.5 -13h469h469q18 0 30.5 13t12.5 31v54q0 6 -2 12z" />
    <glyph glyph-name="uniE65F" unicode="&#xe65f;" 
d="M230 319q-24 -19 -28 -42q-10 -46 22 -79q34 -35 92 -39q68 -5 147 51q39 27 71 70q-126 64 -213 61q-55 -3 -91 -22zM983 184q41 96 41 200t-40.5 199t-109 163.5t-163.5 109t-199 40.5t-199 -40.5t-163.5 -109t-109 -163.5t-40.5 -199t40.5 -199t109 -163.5t163.5 -109
t199 -40.5q126 0 234.5 57t180.5 155q-223 111 -323 159q-78 -89 -177 -118q-71 -21 -127 -10q-57 12 -90 48q-18 20 -27 38l1 -3q-5 7 -8 19q-3 9 -3 18q-1 7 0 13q-1 13 1 24q8 40 35 66q53 51 149 50q76 0 212 -48q22 46 42 121h-307v33h158v67h-191v33h191v66
q0 17 16 17h75v-83h207v-33h-207v-67h166q-2 -10 -6 -28t-22 -66.5t-41 -89.5q125 -45 332 -126z" />
    <glyph glyph-name="uniE661" unicode="&#xe661;" 
d="M512 745q-91 0 -173.5 -35t-142 -94.5t-94.5 -142t-35 -173.5t35 -173.5t94.5 -142t142 -94.5t173.5 -35t173.5 35t142 94.5t94.5 142t35 173.5t-35 173.5t-94.5 142t-142 94.5t-173.5 35zM364 289v-289h-48v282q-38 -95 -96 -163q-11 26 -24 54q76 94 116 219h-113v46
h117v94q-50 -5 -99 -10q-4 24 -12 49q164 14 262 28l13 -48q-57 -7 -116 -14v-99h123v-46h-123v-94l29 28q49 -42 94 -87l-36 -37q-44 46 -87 87zM782 8q-11 35 -23 70q-134 -13 -224 -23q-30 -4 -53 -13l-22 54q25 17 41 64q73 208 131 454l59 -10q-84 -313 -158 -497
q92 6 210 16q-42 123 -86 235l46 18q70 -178 132 -345z" />
    <glyph glyph-name="uniE66B" unicode="&#xe66b;" 
d="M215 384zM127 384q0 36 25.5 61.5t62 25.5t62 -25.5t25.5 -61.5t-25.5 -61.5t-62 -25.5t-62 25.5t-25.5 61.5zM809 384zM722 384q0 36 25.5 61.5t62 25.5t62 -25.5t25.5 -61.5t-25.5 -61.5t-62 -25.5t-62 25.5t-25.5 61.5zM512 384zM425 384q0 36 25.5 61.5t61.5 25.5
t61.5 -25.5t25.5 -61.5t-25.5 -61.5t-61.5 -25.5t-61.5 25.5t-25.5 61.5z" />
    <glyph glyph-name="uniE66F" unicode="&#xe66f;" 
d="M829 471q0 99 -70.5 169.5t-169.5 70.5t-169.5 -70.5t-70.5 -169.5q0 -60 27.5 -111.5t75.5 -85.5q-114 -42 -184.5 -143t-70.5 -223q0 -8 5.5 -13.5t13 -5.5t13 5.5t5.5 13.5q0 118 72 213t186 127l3 2q45 -19 94 -19q98 0 168 69q34 32 52 75q20 46 20 96zM779 388
q-16 -37 -45 -65q-60 -59 -145 -59q-86 0 -146.5 60.5t-60.5 146.5t61 146.5t146.5 60.5t146 -60.5t60.5 -146.5q0 -43 -17 -83zM915 125q-9 14 -33 38q-15 17 -23 26t-15.5 25.5t-7.5 32.5q0 8 -5.5 13.5t-13 5.5t-13 -5.5t-5.5 -13.5q0 -23 9.5 -45.5t19 -34t27.5 -30.5
q22 -21 29 -33q60 -89 60 -196q0 -8 5.5 -13.5t13 -5.5t13 5.5t5.5 13.5q0 119 -66 217zM279 263q26 -11 55 -13h1h2q7 0 12 4.5t5 11.5q0 6 -4.5 11t-10.5 5v1q-61 4 -103 49.5t-42 106.5q0 60 40 104.5t99 51.5v0q13 3 13 16q0 7 -5 12t-12 5h-1q-71 -9 -119 -63t-48 -126
q0 -46 20.5 -85.5t55.5 -65.5q-87 -35 -140.5 -113.5t-53.5 -172.5q0 -8 5.5 -13.5t13 -5.5t13 5.5t5.5 13.5q0 90 55 162.5t142 97.5h1z" />
    <glyph glyph-name="uniE671" unicode="&#xe671;" 
d="M812 505q61 -6 92.5 -25t42 -42t6 -46t-14.5 -38.5t-24 -31t-26 -27.5q-15 -14 -30 -29l-36 38v-11h-424l-4 -22q-2 -12 -7 -23q44 4 88.5 6.5t85 4t76 1.5t61.5 -2q42 -3 70.5 -11.5t45 -20.5t24 -25.5t7.5 -27.5q0 -11 -7.5 -26t-24.5 -32.5t-47 -36.5t-74 -39
q60 -14 122.5 -22t122.5 -9l-12 -71q-89 0 -189 12t-190 40q-62 -15 -138 -29.5t-171 -26.5l-26 70q-26 -17 -49 -31t-40 -22q-21 -11 -39 -17l-41 50q41 22 78 52q32 26 64.5 62.5t53.5 85.5q9 20 14 50t9 60h-65v-35h-135v218h135v-21q8 1 18 2l20 3q13 1 28 4
q-11 14 -24 28t-24 25q-13 14 -27 26l22 14h-117v72q167 1 314.5 6.5t259.5 13.5q131 9 242 20l17 -96q-38 0 -78 -3l10 -4q-9 -9 -19 -18l-19 -18l-22 -24q4 0 8 -0.5t7 -0.5zM212 4q125 9 224 31q-33 17 -59.5 37.5t-45.5 46.5q-25 -36 -55.5 -63.5t-63.5 -51.5zM692 156
q10 20 -9.5 31t-56.5 15t-85.5 2t-97.5 -6q15 -38 50 -67t86 -53q45 19 74 38.5t39 39.5zM658 505q8 14 17 30t17 29q-51 -1 -100 -2.5t-97 -2.5q17 -14 35 -30.5t28 -30.5q27 2 52 3.5t48 3.5zM287 557q18 -14 40 -32.5t33 -33.5l-41 -20q27 2 59.5 6.5t67.5 8.5
q-10 12 -19.5 23t-17.5 20l-19 18l20 11q-34 0 -64.5 -0.5t-58.5 -0.5zM265 391h149q-1 -8 -1.5 -16t-0.5 -17h372q6 4 12 9t11 13q12 25 -10.5 39t-64 20.5t-94.5 5t-103 -9.5q-39 -5 -96.5 -12.5t-111.5 -15.5q-64 -9 -131 -20v-29h69v33z" />
    <glyph glyph-name="uniE672" unicode="&#xe672;" horiz-adv-x="1025" 
d="M159 690h486q12 0 20.5 8.5t8.5 20.5t-8.5 20.5t-20.5 8.5h-486q-12 0 -20.5 -8.5t-8.5 -20.5t8.5 -20.5t20.5 -8.5zM159 567h307q12 0 20.5 8.5t8.5 20.5t-8.5 20.5t-20.5 8.5h-307q-12 0 -20.5 -8.5t-8.5 -20.5t8.5 -20.5t20.5 -8.5zM464 306q0 71 50.5 121t121.5 50
t121.5 -50t50.5 -121t-50.5 -121.5t-121.5 -50.5t-121.5 50.5t-50.5 121.5zM1024 806q0 37 -26.5 63.5t-63.5 26.5h-844q-37 0 -63.5 -26.5t-26.5 -63.5v-905q0 -12 8.5 -20.5t20.5 -8.5h5q11 0 20 8l97 91l98 -91q9 -8 20 -8h10q12 0 20 8l98 91l98 -91q8 -8 20 -8h10
q11 0 20 8l98 91l97 -91q9 -8 20 -8q13 0 21 9q9 9 8.5 21t-9.5 20l-118 110q-8 8 -19.5 8t-19.5 -8l-103 -96l-103 96q-9 8 -20 8t-20 -8l-103 -96l-103 96q-8 8 -19.5 8t-19.5 -8l-74 -69v843q0 13 9.5 22.5t22.5 9.5h844q13 0 22.5 -9.5t9.5 -22.5v-822v-4l-166 165
q66 67 66 161q0 95 -67.5 162t-162.5 67t-162.5 -67t-67.5 -162t67.5 -162.5t162.5 -67.5q63 0 118 33l221 -219q13 -14 31 -6.5t18 27.5v895zM630 436q-53 0 -91 -38t-38 -92q0 -12 8.5 -20.5t20.5 -8.5t20.5 8.5t8.5 20.5q0 30 21 51t50 21q12 0 20.5 8.5t8.5 20.5
t-8.5 20.5t-20.5 8.5z" />
    <glyph glyph-name="uniE673" unicode="&#xe673;" 
d="M744 665q-8 8 -19.5 8.5t-19.5 -7.5l-193 -192l-193 192q-8 8 -19.5 7.5t-19.5 -8.5t-8 -19t8 -19l187 -185h-140q-11 0 -19.5 -8t-8.5 -19.5t8.5 -19.5t19.5 -8h158v-113h-158q-11 0 -19.5 -8t-8.5 -19t8.5 -19t19.5 -8h158v-161q0 -12 8 -20t19 -8t19 8t8 20v161h158
q12 0 20 8t8 19t-8 19t-20 8h-158v113h158q12 0 20 8t8 19.5t-8 19.5t-20 8h-140l187 185q8 8 8 19t-8 19zM27 510h156q12 0 20 8t8 19t-8 19t-20 8h-91q54 126 168 201.5t252 75.5q93 0 177.5 -36t146 -97.5t97.5 -146t36 -177.5q0 -11 8 -19t19.5 -8t19.5 8t8 19
q0 104 -40.5 199t-109 163.5t-163.5 109t-199 40.5q-146 0 -269 -76.5t-188 -205.5v183q0 11 -8 19t-19.5 8t-19.5 -8t-8 -19v-260q0 -11 8 -19t19 -8zM997 273h-156q-12 0 -20 -8t-8 -19.5t8 -19.5t20 -8h97q-51 -130 -168 -210.5t-258 -80.5q-93 0 -177.5 36t-146 97.5
t-97.5 146t-36 177.5q0 11 -8 19t-19.5 8t-19.5 -8t-8 -19q0 -104 40.5 -199t109 -163.5t163.5 -109t199 -40.5q145 0 268.5 77t188.5 205v-168q0 -11 8 -19.5t19.5 -8.5t19.5 8.5t8 19.5v260q0 11 -8 19t-19 8z" />
    <glyph glyph-name="uniE677" unicode="&#xe677;" 
d="M1001 93q0 -25 -54 -83t-118 -58t-114 60q-24 29 -64 63t-64.5 50t-38 16t-28.5 -13q-51 -41 -113 -74.5t-95.5 -33.5t-55.5 49t-22 55q0 3 1 4.5t3 1.5q4 0 19.5 -8t53.5 -8t99.5 26.5t61.5 44.5q0 7 -9 14.5t-59.5 31.5t-60 24t-21.5 -15q-37 -47 -94 -108
q-58 -62 -79 -74t-40.5 -12t-47 18t-27.5 108q0 24 11 24q5 0 8 -7q10 -17 40.5 -17t101 44.5t106 97.5t35.5 61t-9.5 8t-41.5 -5.5t-51 -5.5q-38 0 -38 38q0 16 10.5 27t20 11t17 -3.5t20.5 -3.5t67 11t67.5 34t13.5 30t-10 7t-87 -11q-78 -12 -94 -16q-17 -3 -38.5 -16
t-35.5 -29.5t-19.5 -35.5t-25 -27t-28.5 -8q-21 0 -21 26q0 6 3.5 21.5t3.5 38t-2.5 33.5t-2.5 19q0 32 31 32q8 0 23 -4t32.5 -4t29.5 3q125 36 335 45q43 3 72.5 12t64 35.5t43 36t8.5 14.5t-2.5 8.5t-2.5 7.5q0 5 19.5 14.5t40 9.5t35.5 -14.5t15 -30.5t-33.5 -28
t-63.5 -27q-15 -8 -22.5 -14t-7.5 -10q0 -9 32 -10q63 -1 120.5 -11.5t73.5 -10.5t50.5 -11t34.5 -35q0 -14 -15 -36q-16 -23 -42 -63q-25 -39 -33 -47t-18.5 -8t-19.5 11.5t-9 25t12.5 50t12.5 45.5q0 39 -209 39q-144 0 -176 -9.5t-32 -38.5q0 -13 6.5 -17.5t20.5 -4.5
l60 3q35 2 92 2t110 -11t53 -27q0 -7 -13.5 -19.5t-53.5 -12.5l-116 4q-43 0 -99 -4t-70.5 -9t-24.5 -16.5t-20.5 -31t-10.5 -31.5t29 -23q30 -12 70 -32q39 -20 55 -20t37 23.5t21 35.5t-28 8t-45.5 -4t-45 6.5t-27.5 16.5t37.5 23.5t92 15t73.5 3.5q18 2 27 2q34 0 34 -23
q0 -11 -10.5 -33t-52.5 -54t-42 -47q0 -7 11 -15t66.5 -35.5t82 -37.5t47.5 -10q52 0 115 -19q16 -5 25.5 -5t17.5 5t15.5 5t7.5 -13zM941 756q0 -13 -24.5 -19t-72.5 -6q-85 0 -186.5 16t-177.5 16q-117 0 -179 -31q-21 -11 -72.5 -19.5t-88.5 -8.5t-37 24q0 8 6 32.5
t15.5 24.5t24.5 -5t23 -5t19 3q44 15 138 28t173.5 13t212.5 -13.5t159 -22t43 -8.5t20.5 -3t3.5 -16zM379 675q0 -22 -42 -48.5t-77.5 -26.5t-43.5 14t-8 32t6.5 23.5t33.5 5.5t87 18q8 2 17.5 2t18 -6t8.5 -14zM575 692q0 -8 -22.5 -23.5t-37 -15.5t-24.5 -3l-17 -3
q-7 0 -14 17.5t-7 31t19 20.5t40.5 7t42 -11.5t20.5 -19.5z" />
    <glyph glyph-name="uniE678" unicode="&#xe678;" 
d="M736 896h-448q-84 0 -143.5 -57t-59.5 -138v-475q0 -13 9.5 -22.5t23 -9.5t22.5 9.5t9 22.5v475q0 54 41 92.5t98 38.5h448q57 0 98 -38.5t41 -92.5v-625q0 -75 -31.5 -107.5t-102.5 -32.5h-457q-73 0 -104 32t-31 108q0 13 -9 22.5t-22.5 9.5t-23 -9.5t-9.5 -22.5
q0 -204 199 -204h457q198 0 198 204v625q0 81 -59.5 138t-143.5 57zM784.5 719.5q-6.5 11.5 -19.5 15t-24 -2.5q-60 -33 -130 -44.5t-121.5 -7t-103 18t-70 21.5t-27.5 12q-12 7 -24.5 2.5t-18.5 -16t-2 -24t16 -18.5q15 -8 40 -18.5t93.5 -26.5t133.5 -16q133 0 245 61
q11 6 15 19t-2.5 24.5zM659 258q13 0 22.5 9.5t9.5 23t-9.5 22.5t-22.5 9h-87l88 133q7 11 4.5 24t-13.5 20.5t-24 5t-20 -13.5l-93 -140l-93 140q-8 11 -21 13.5t-24 -5t-13.5 -20.5t4.5 -24l89 -133h-84q-13 0 -22.5 -9t-9.5 -22.5t9.5 -23t22.5 -9.5h111v-54h-111
q-13 0 -22.5 -9t-9.5 -22.5t9.5 -23t22.5 -9.5h111v-82q0 -13 9.5 -22.5t23 -9.5t22.5 9.5t9 22.5v82h112q13 0 22.5 9.5t9.5 23t-9.5 22.5t-22.5 9h-112v54h112z" />
    <glyph glyph-name="uniE679" unicode="&#xe679;" 
d="M512 896q-104 0 -199 -40.5t-163.5 -109t-109 -163.5t-40.5 -199q0 -157 87 -286q8 -12 21.5 -14.5t25 5t14.5 21.5t-5 25q-76 113 -76 249q0 90 35 172.5t95 142.5t142.5 95t172.5 35t172.5 -35t142.5 -95t95 -142.5t35 -172.5t-35 -172.5t-95 -142.5t-142.5 -95
t-172.5 -35q-140 0 -254 79q-11 8 -24.5 5.5t-21.5 -14t-5.5 -25t13.5 -21.5q131 -91 292 -91q104 0 199 40.5t163.5 109t109 163.5t40.5 199t-40.5 199t-109 163.5t-163.5 109t-199 40.5zM512 210q-28 0 -47.5 -19.5t-19.5 -47t19.5 -47t47.5 -19.5t47.5 19.5t19.5 47
t-19.5 47t-47.5 19.5zM512 680q-37 0 -63 -26t-26 -63q0 -2 1 -11h-1l34 -273q4 -19 19.5 -32t35.5 -13t35.5 13t19.5 32l33 273q1 9 1 11q0 37 -26 63t-63 26z" />
    <glyph glyph-name="uniE67A" unicode="&#xe67a;" 
d="M728 95q0 -89 -63 -152.5t-153 -63.5t-153 63.5t-63 152.5q0 80 52 140.5t130 72.5v390q0 10 6.5 16.5t16 6.5t16 -6.5t6.5 -16.5v-45h114q10 0 16.5 -7t6.5 -16t-6.5 -16t-16.5 -7h-114v-68h114q10 0 16.5 -6.5t6.5 -16t-6.5 -16.5t-16.5 -7h-114v-182q86 -5 145.5 -67
t59.5 -149zM341 95.5q0 -70.5 50 -120.5t121 -50t121 50t50 120.5t-50 120.5t-121 50t-121 -50t-50 -120.5z" />
    <glyph glyph-name="uniE691" unicode="&#xe691;" 
d="M512 233q-28 0 -47.5 -19.5t-19.5 -47.5q0 -29 22 -49v-62q0 -18 13.5 -31t31.5 -13t31.5 13t13.5 31v62q22 20 22 49q0 28 -19.5 47.5t-47.5 19.5zM824 434h-45v111q0 111 -78 189t-189 78t-189 -78t-78 -189v-111h-45q-46 0 -78.5 -33t-32.5 -79v-423q0 -46 32.5 -78.5
t78.5 -32.5h624q46 0 78.5 32.5t32.5 78.5v423q0 46 -32.5 79t-78.5 33zM512 767q92 0 157.5 -65t65.5 -157v-111h-446v111q0 92 65.5 157t157.5 65zM890 -101q0 -27 -19.5 -46.5t-46.5 -19.5h-624q-27 0 -46.5 19.5t-19.5 46.5v423q0 28 19.5 47.5t46.5 19.5h624
q27 0 46.5 -19.5t19.5 -47.5v-423z" />
    <glyph glyph-name="uniE692" unicode="&#xe692;" 
d="M500 207h24q14 0 24.5 -10.5t10.5 -24.5v-163q0 -14 -10.5 -24.5t-24.5 -10.5h-24q-14 0 -24.5 10.5t-10.5 24.5v163q0 14 10.5 24.5t24.5 10.5zM884 323v-419q0 -19 -13.5 -32.5t-32.5 -13.5h-652q-19 0 -32.5 13.5t-13.5 32.5v419h744zM954 393h-884v-489q0 -48 34 -82
t82 -34h652q48 0 82 34t34 82v489zM861 393h-70v70q0 116 -83 197.5t-196 81.5q-114 0 -196.5 -82.5t-82.5 -196.5v-70h-70v70q0 93 47 174t127.5 128t174.5 47q93 0 173 -45.5t128 -126.5t48 -177v-70z" />
    <glyph glyph-name="uniE694" unicode="&#xe694;" 
d="M535 -122q-1 -1 -2 -1q-10 -5 -23 -5q-4 0 -9 1q-7 1 -15 5v0q-80 33 -145.5 81t-109 99.5t-76 112.5t-50.5 116t-29 113.5t-14 101.5t-2.5 83.5t2 55.5t2.5 22q2 17 14 29.5t28 15.5q56 11 120 36t118 56t82.5 49t48.5 33q11 9 21 12q13 4 28 0q13 -3 23 -13
q22 -15 50.5 -33t83 -49t118 -55.5t119.5 -35.5q16 -3 28 -15.5t14 -29.5q1 -7 2.5 -22t2 -56t-2.5 -83.5t-14 -101t-29.5 -113.5t-51.5 -116t-76.5 -113t-109.5 -99.5t-146 -80.5zM912 632q-2 15 -12.5 26.5t-25.5 14.5q-134 25 -329 163q-9 8 -21 12q-13 3 -25 -1
q-10 -3 -18 -10q-18 -13 -44.5 -30t-75.5 -45.5t-106.5 -51.5t-107.5 -33q-14 -3 -24.5 -16t-12.5 -29q-2 -9 -3 -31.5t1 -78.5t11.5 -113t36 -130t66 -135t109 -121.5t159.5 -97.5h1q7 -4 13 -5h8q12 0 20 4q1 0 2 1q71 29 129.5 72.5t97.5 90t68.5 101.5t45.5 104.5
t25.5 102t12.5 91t2.5 75.5t-1.5 50t-2 20zM231 513h32v-290h-32v290zM540 323l37 -9q-27 -94 -126 -95q-124 7 -131 143q5 148 134 155q83 -3 118 -84l-37 -9q-26 62 -84 64q-88 -9 -97 -123q6 -112 96 -120q71 3 90 78zM747 340h-90v-117h-32v290h125q88 -5 97 -86
q-2 -85 -100 -87zM741 484h-84v-115h84q70 2 71 60q-3 53 -71 55z" />
    <glyph glyph-name="uniE695" unicode="&#xe695;" 
d="M339 282q0 -20 -8 -70q-12 -50 -12 -75v-37q20 -195 -109 -191q-129 0 -129 195q0 120 17 240q-73 4 -77 120q0 67 24 116q-4 -41 32 -45q17 0 37 16q28 25 68 25q100 -8 109 -128q0 -37 -21 -112q-20 -79 -20 -120q0 -33 12.5 -33t40.5 58q20 45 28 45q4 0 6 -1t2 -3z
M94 858h48q189 8 189 -133q-4 -112 -109 -116q-112 -4 -104 166q0 50 -24 83zM990 373q0 -79 -80 -79q-33 0 -101 9q-69 4 -104 4q-48 0 -141 -8q-96 -13 -145 -13q-100 8 -108 116q4 79 56 108q-12 -13 -12 -33q0 -33 56 -33h24q12 32 25 70h-5q-100 -4 -112 128
q28 -8 64 -8q25 0 77 8q-37 -8 12 0q0 9 4 21v13q0 12 -12 20h-28q-97 0 -113 145q52 -8 237 13q141 16 189 16q173 8 169 -91q0 -66 -84 -66h-57q-72 4 -112 0h-16q28 -17 28 -46h-4h8q233 4 229 -161v-42q56 -21 56 -91zM379 266h12q44 0 97 -17q16 4 48 8q105 21 169 21
q261 4 257 -211q8 -174 -133 -170q-72 0 -92 50q-36 -13 -125 -13h-16q-12 0 -32 4q4 0 -4 4q-24 -45 -84 -45q-113 4 -117 153q0 29 16 87q12 54 12 83q4 25 -8 46zM661 137q-16 0 -45 -4q-32 -4 -48 -4q8 -34 8 -71q49 17 105 17h20q16 -4 20 -4v25q0 45 -60 41zM697 535
h-44q-13 -42 -25 -75q17 4 53 4q37 4 52 4q12 71 -36 67z" />
    <glyph glyph-name="uniE696" unicode="&#xe696;" 
d="M354 584q0 22 2.5 43t12.5 50t26 50t46.5 36t70.5 15q39 0 68.5 -13.5t46 -33.5t26.5 -47.5t13 -51t3 -48.5v-88h119v88q0 142 -75 227t-201 85t-201 -85t-75 -227v-88h118v88zM788 502h-552q-49 0 -83.5 -34.5t-34.5 -83.5v-394q0 -49 34.5 -83.5t83.5 -34.5h552
q49 0 83.5 34.5t34.5 83.5v394q0 49 -34.5 83.5t-83.5 34.5zM551 159v-90q0 -16 -11.5 -27.5t-27.5 -11.5t-27.5 11.5t-11.5 27.5v90q-40 23 -40 67q0 33 23 56t56 23t56 -23t23 -56q0 -44 -40 -67z" />
    <glyph glyph-name="uniE69E" unicode="&#xe69e;" 
d="M512 -212q-104 0 -199 40.5t-163.5 109t-109 163.5t-40.5 199t40.5 199t109 163.5t163.5 109t199 40.5t199 -40.5t163.5 -109t109 -163.5t40.5 -199t-40.5 -199t-109 -163.5t-163.5 -109t-199 -40.5zM512 763q-94 0 -180 -36.5t-148 -98.5t-98.5 -148t-36.5 -180
t36.5 -180t98.5 -148t148 -98.5t180 -36.5t180 36.5t148 98.5t98.5 148t36.5 180t-36.5 180t-98.5 148t-148 98.5t-180 36.5zM439 117l-178 178l34 34l144 -144l292 292l35 -34z" />
    <glyph glyph-name="uniE69F" unicode="&#xe69f;" 
d="M512 812q-104 0 -199 -40.5t-163.5 -109t-109 -163.5t-40.5 -199t40.5 -199t109 -163.5t163.5 -109t199 -40.5t199 40.5t163.5 109t109 163.5t40.5 199t-40.5 199t-109 163.5t-163.5 109t-199 40.5zM512 -163q-94 0 -180 36.5t-148 98.5t-98.5 148t-36.5 180t36.5 180
t98.5 148t148 98.5t180 36.5t180 -36.5t148 -98.5t98.5 -148t36.5 -180t-36.5 -180t-98.5 -148t-148 -98.5t-180 -36.5zM719 473l-35 34l-172 -173l-172 173l-35 -35l173 -172l-173 -173l35 -34l172 173l172 -173l35 35l-172 172z" />
    <glyph glyph-name="uniE6BE" unicode="&#xe6be;" 
d="M1018 281l-436 473q-28 30 -70 28.5t-70 -34.5l-436 -467q-9 -19 0 -39q20 -9 39 0l429 468q14 14 35 14t35 -14l435 -474q3 3 6 3t7 -1.5t6 -1.5q13 0 20 6q9 20 0 39zM889.5 242q-9.5 0 -17.5 -8t-8 -17v-314q0 -14 -9 -23t-23 -9h-134q-15 0 -23.5 9t-8.5 23v256
q0 34 -25 58.5t-59 24.5h-147q-33 0 -58 -24.5t-25 -58.5v-256q0 -14 -9 -23t-23 -9h-128q-14 0 -23 9t-9 23v314q0 9 -8 17t-17.5 8t-17.5 -8t-8 -17v-314q0 -33 24.5 -58t58.5 -25h134q34 0 59 25t25 58v256q0 15 8.5 23.5t23.5 8.5h140q15 0 23.5 -8.5t8.5 -23.5v-256
q0 -33 25 -58t59 -25h134q34 0 58.5 25t24.5 58v314q0 9 -8 17t-17.5 8z" />
    <glyph glyph-name="uniE6BF" unicode="&#xe6bf;" horiz-adv-x="1136" 
d="M1064 462zM353 -55h-149q-46 0 -78.5 36t-32.5 86v634q0 50 32.5 86t78.5 36h670q46 0 78.5 -36t32.5 -86v-61q0 -15 11 -26t26.5 -11t26.5 11t11 26v61q0 81 -55 138t-131 57h-670q-77 0 -131.5 -57t-54.5 -138v-634q0 -81 54.5 -138t131.5 -57h149q15 0 26 10.5t11 26
t-11 26t-26 10.5zM204 603q-15 0 -26 -10.5t-11 -25.5t11 -26t26 -11h298q15 0 26 11t11 26t-11 25.5t-26 10.5h-298zM464 347.5q0 15.5 -10.5 26t-26.5 10.5h-223q-15 0 -26 -10.5t-11 -26t11 -26t26 -10.5h223q16 0 26.5 10.5t10.5 26zM911 279q43 31 68 77.5t25 100.5
q0 91 -65.5 155.5t-158 64.5t-158 -64.5t-65.5 -155.5q0 -54 25 -100.5t68 -77.5q-88 -43 -146 -128.5t-58 -168.5q0 -15 11 -26t26 -11t26 11t11 26q0 38 21 82.5t55 83t83.5 64.5t101 26t101 -26t83.5 -64.5t55 -83t21 -82.5q0 -15 11 -26t26 -11t26 11t11 26
q0 83 -58 168.5t-146 128.5zM780.5 311q-61.5 0 -105 43t-43.5 103.5t43.5 103t105 42.5t105 -42.5t43.5 -103t-43.5 -103.5t-105 -43z" />
    <glyph glyph-name="uniE6C1" unicode="&#xe6c1;" 
d="M513.5 752q-91.5 0 -174.5 -35.5t-143.5 -96t-96 -143.5t-35.5 -174.5t35.5 -175t96 -143.5t143.5 -95.5t174.5 -35.5t175 35.5t143.5 95.5t95.5 143.5t35.5 175t-35.5 174.5t-95.5 143.5t-143.5 96t-175 35.5zM513.5 -106q-110.5 0 -204.5 54.5t-148.5 148.5t-54.5 205
t54.5 205t148.5 148.5t204.5 54.5t204.5 -54.5t148.5 -148.5t54.5 -205t-54.5 -205t-148.5 -148.5t-204.5 -54.5zM367 358q0 -5 -6 -9.5t-15 -4.5t-15 4.5t-6 9.5v118q0 5 6 9.5t15 4.5t15 -4.5t6 -9.5v-118zM702 358q0 -5 -6 -9.5t-15 -4.5q-8 0 -14 4.5t-6 9.5v118
q0 5 6 9.5t14 4.5q9 0 15 -4.5t6 -9.5v-118zM194 295q4 -129 97 -219t222.5 -90t222.5 90t97 219h-639zM514 20q-73 0 -137 36t-101 91.5t-37 113.5h550q-6 -45 -29 -88t-58 -77t-84.5 -55t-103.5 -21z" />
    <glyph glyph-name="uniE6C8" unicode="&#xe6c8;" 
d="M512 -121q-114 0 -211 56.5t-153.5 153.5t-56.5 211t56.5 211t153.5 153.5t211 56.5t211 -56.5t153.5 -153.5t56.5 -211t-56.5 -211t-153.5 -153.5t-211 -56.5zM512 675q-102 0 -188.5 -50t-136.5 -136.5t-50 -188.5t50 -188.5t136.5 -136.5t188.5 -50t188.5 50
t136.5 136.5t50 188.5t-50 188.5t-136.5 136.5t-188.5 50zM794 255q-7 -37 -29.5 -78.5t-57 -77.5t-83.5 -59.5t-101 -23.5h-22q-55 0 -104.5 23.5t-83 60t-55 77t-28.5 78.5q-2 6 -2 11v45q0 10 6.5 16.5t15.5 6.5h524q9 0 15.5 -6.5t6.5 -16.5v-45q0 -5 -2 -11zM274 289
q2 -35 20.5 -74t48.5 -73.5t75 -57.5t94 -23q47 0 91.5 23t75 57.5t50 74t21.5 73.5h-476zM722 403l-137 44q-9 2 -13.5 10.5t-2 18.5t10.5 15t17 2l137 -43q9 -3 13.5 -11.5t2.5 -18t-10.5 -14.5t-17.5 -3zM438 449l-138 -41q-9 -2 -17 2.5t-10.5 13.5t2.5 17.5t14 10.5
l137 41q9 2 17 -2.5t10.5 -13.5t-2 -17t-13.5 -11z" />
    <glyph glyph-name="uniE6D8" unicode="&#xe6d8;" 
d="M297 486l20 -27q13 -93 71 -154t134 -61q79 0 137 62.5t68 156.5l17 17q-10 11 -10.5 26t3.5 28t14 38q7 17 10 26t6.5 23.5t2.5 26.5t-5 23q-11 33 -34.5 62t-54.5 47q-19 11 -43 21t-54.5 17.5t-63.5 6t-61 -13.5q-10 -4 -27 -21q-27 -26 -62 -34q-33 -5 -56.5 -25.5
t-32.5 -46.5q-2 -9 -2.5 -20t0.5 -20t5 -21.5t6.5 -19.5t8.5 -21q11 -25 16 -40.5t2.5 -30.5t-15.5 -25zM522 278q-72 0 -123 65t-51 157q0 13 2 15.5t15 5.5l6 1q6 1 8 2t7.5 2.5t8.5 3.5l7 5q5 3 8.5 7t5.5 9l31 41q34 -17 55 -31q28 -17 48 -17q23 0 47 24q14 -17 55 -30
q26 -12 35 -19t9 -19q0 -92 -51 -157t-123 -65zM311 674q13 40 61 51q10 2 19.5 5t15 5.5t14 8t11 7.5t10.5 8.5t9 6.5q3 4 9 8.5t8 5.5q28 14 67 10t68.5 -13.5t55.5 -23.5q53 -32 75 -93q7 -20 -14 -75q-1 -2 -6 -15.5t-7 -21.5q-19 14 -45 20q-37 13 -44 28q-9 13 -21 13
t-23.5 -17t-27.5 -17q-10 0 -31 10q-56 38 -78 38h-10l-11 -14l-34 -44q0 -6 -13 -9q-5 -1 -7 -1q-4 0 -17 -7q-15 37 -17 48q-25 50 -17 78zM884 166q-4 10 -59.5 34t-109 43t-53.5 18q14 -47 11.5 -90t-17 -79.5t-30.5 -63.5t-29 -42l-13 -15l-31 208l14 10l-14 24h-41
l-14 -24l14 -10l-20 -211q-38 23 -62.5 63.5t-33.5 76t-11.5 75.5t-1 55t2.5 23q-26 -1 -81.5 -25t-98.5 -47l-42 -23q-17 -26 -27 -83t-12 -88.5t-2 -43.5h802q9 37 -8.5 109t-32.5 106z" />
    <glyph glyph-name="uniE6D9" unicode="&#xe6d9;" 
d="M177 244l11 -31q77 21 92 62q7 16 8.5 34t-5 44t-13 44.5t-21.5 58.5q-38 99 34 208q41 59 101 96t114 37q59 0 125 -47.5t107 -119.5q31 -51 36.5 -100t-15.5 -85q-64 -111 -38 -170q21 -53 99 -79l11 34q-63 21 -79 58q-18 45 34 144q52 94 -20 218q-46 79 -121 132
t-142 53q-65 0 -132 -40.5t-110 -106.5q-41 -59 -51.5 -121t10.5 -118q1 -3 3 -8q10 -26 14.5 -39t10.5 -32.5t8 -30.5t2 -23t-4 -21q-3 -17 -19.5 -28.5t-49.5 -22.5zM509 254q82 0 140 74t58 179q0 54 -14 95l-34 -10q2 -4 3.5 -11.5t3.5 -12.5q-11 -26 -28 -30
q-31 -14 -81.5 -1t-78.5 31l-51 24l27 -48q1 -3 5.5 -13t4.5 -14h-7q-16 5 -26 8.5t-19 8t-12.5 6t-14.5 8.5t-16 10q-4 3 -17 10q0 2 1.5 7t1.5 7v3l-34 11v-4l-10 -37h3q-3 -17 -3 -48q0 -105 58 -179t140 -74zM345 531l3 -4q24 -16 36 -21.5t60 -22.5q28 -9 44 7
q7 7 7 27q94 -39 154 -14q18 10 20 14v-14q0 -89 -48.5 -153.5t-115.5 -64.5q-69 0 -116.5 64t-47.5 154q4 11 4 28zM649 244q-3 -5 -7 -14t-17.5 -32t-29 -40t-40 -31t-50.5 -13t-51 15t-43 32.5t-32 37.5t-21 32l-6 13q-14 -8 -35.5 -20.5t-62 -43.5t-53.5 -52
q-17 -32 -17 -126h628q2 11 4 28t0 52.5t-14 48.5q-23 30 -75.5 67t-77.5 46z" />
    <glyph glyph-name="uniE6ED" unicode="&#xe6ed;" 
d="M1013 745l-103 104q-11 10 -26 10t-26 -10l-517 -518l-26 -180l181 25l517 518q11 10 11 25.5t-11 25.5zM406 319l413 413l78 -77l-414 -414zM389 283l59 -58l-68 -10zM923 681l-78 77l39 39l78 -78zM914 457q-15 0 -25.5 -10.5t-10.5 -25.5v-439h-768v731h475
q15 0 26 11t11 26t-11 25.5t-26 10.5h-512q-15 0 -25.5 -10.5t-10.5 -25.5v-805q0 -15 10.5 -25.5t25.5 -10.5h841q15 0 26 10.5t11 25.5v476q0 15 -11 25.5t-26 10.5z" />
    <glyph glyph-name="uniE6EE" unicode="&#xe6ee;" horiz-adv-x="1029" 
d="M971 545h-150q4 3 8 5q71 50 71 130q0 44 -25 73q-31 37 -92 37q-62 0 -109 -47q-25 -25 -62 -89q-14 -24 -21.5 -36t-20 -27.5t-24.5 -22t-26.5 -6.5t-26.5 6.5t-24.5 22t-20 27.5t-21.5 36q-37 64 -62 89q-47 47 -108 47q-62 0 -93 -37q-24 -29 -24 -73q0 -80 70 -130
q4 -2 8 -5h-150q-22 0 -38 -16t-16 -38v-143q0 -19 12 -34t31 -19v0v-454q0 -22 16 -38t38 -16h817q23 0 38.5 16t15.5 38v454v0q19 4 31 19t12 34v143q0 22 -16 38t-38 16zM444 349v142h151v-142h-151zM595 294v-452h-151v452h151zM783 735q61 0 61 -55q0 -51 -47 -84
q-47 -34 -112 -34h-66q15 20 41 64q16 28 25 42t25 32.5t33.5 26.5t39.5 8zM257 735q21 0 38.5 -8t33.5 -26.5t25 -32.5t25 -42q26 -44 41 -64h-66q-65 0 -112 34q-47 33 -47 84q0 55 62 55zM649 491h322v-142h-322v142zM69 491h320v-142h-320v142zM111 294h278v-452h-278
v452zM928 -158h-279v452h279v-452z" />
    <glyph glyph-name="uniE792" unicode="&#xe792;" 
d="M512 300zM526 254q0 6 -4.5 10.5t-10.5 4.5q-94 0 -160.5 66.5t-66.5 160.5t66.5 160.5t160.5 66.5t161 -66.5t67 -160.5q0 -98 -71 -165q-11 -10 -1 -20.5t21 -0.5q37 36 58 83q21 49 21 103q0 106 -75 181t-181 75t-181 -75t-75 -181t75 -181t181 -75q6 0 10.5 4
t4.5 10zM345 241q-113 -43 -191 -137q-79 -94 -100 -215q-1 -7 3 -12.5t11 -7.5h3q14 0 17 14q20 111 92.5 198.5t177.5 127.5q6 2 9 9t0.5 13.5t-9 9.5t-13.5 0zM968 53q-11 39 -50 52q-19 6 -54 6h-9q8 1 16 3q62 13 70 60q4 24 -7.5 48.5t-23.5 32.5q-16 9 -35 9
q-8 0 -15 -1q-5 36 -40 43q-8 1 -15 1q-24 0 -40.5 -13.5t-24.5 -33.5q-5 -12 -6 -39q-15 45 -42 61q-15 9 -36 9q-46 0 -70 -31q-17 -22 -16 -49q-21 -3 -37 -16.5t-20 -38.5q-5 -28 11 -49q11 -15 27 -22.5t24 -8.5q6 -1 13 -1q17 0 50 6q-29 -12 -52 -31q-27 -22 -32 -56
t9 -56q17 -34 63 -34h1q5 -19 19 -35t38 -20q5 -1 10 -1q28 0 55 19.5t30 46.5q2 19 0 42q11 -23 22 -37q17 -20 46 -20q30 0 50 20q18 19 15 53q29 1 40 14q26 29 16 67zM761 252q13 32 44 32q5 0 10 -1q26 -5 23 -34l-3 -20l19 8q9 4 21 4t23 -6q6 -4 14.5 -22t5.5 -35
q-5 -31 -52 -41q-68 -15 -103 -24q-12 113 -2 139zM588 98q-5 0 -10 1q-23 4 -36 22q-9 14 -6 32q6 36 46 36h1l18 -1l-6 17q-8 19 9 40q18 23 52 23q15 0 25 -6q24 -14 35 -59.5t12 -91.5q-8 1 -16 1q-14 0 -26 -1q-17 -2 -49 -7q-34 -6 -49 -6zM756 -83q-2 -18 -22 -32
t-40 -14q-3 0 -6 1q-16 2 -26 14t-12 20l-2 12l-1 11l-11 -1q-5 -1 -10 -1q-32 0 -42 21q-6 10 -8 23.5t3.5 31t21.5 29.5q55 45 132 46q1 -14 10 -52q17 -76 13 -109zM935 1q-6 -6 -29 -6h-7l-17 1l5 -16q8 -29 -7 -45q-13 -13 -33 -13q-18 0 -29 12q-17 21 -31 66t-21 80
q57 8 98 8q31 0 47 -5q27 -9 35 -36q7 -26 -11 -46z" />
    <glyph glyph-name="uniE7BD" unicode="&#xe7bd;" 
d="M511 782q-98 0 -187 -38t-154 -102.5t-103 -154t-38 -187.5t38 -187t103 -154t154 -103t187 -38t187.5 38t154 103t102.5 154t38 187t-38 187.5t-102.5 154t-154 102.5t-187.5 38zM511 -173q-96 0 -183.5 37.5t-151 101t-101 151t-37.5 183.5t37.5 184t101 151t151 101
t183.5 38t184 -38t151 -101t100.5 -151t37.5 -184t-37.5 -183.5t-100.5 -151t-151 -101t-184 -37.5zM479 447q-7 -5 -3 -12q0 -2 3 -5q28 -44 40 -76q2 -7 9 -4q7 5 7 12q-19 43 -44 80q-5 7 -12 5zM322 277q60 71 67 137q0 9 -7 11q-8 0 -10 -9q-7 -68 -62 -128
q-5 -7 2 -12q5 -4 10 1zM320 386q9 0 9 11v43q0 23 21 23h314q40 -2 14 -71q-3 -9 4 -12q8 -4 12 5q17 40 12 65q-9 28 -35 30h-154q-3 21 -10 34q-5 7 -12 7q-7 -3 -5 -12q5 -10 10 -29h-150q-38 -2 -40 -28v-55q0 -11 10 -11zM638 383q-5 7 -13 2q-6 -5 0 -12
q46 -63 69 -127q3 -8 12 -5q8 5 5 14q-28 64 -73 128zM673 224q-10 0 -10 -9v-71q3 -26 -32 -22h-114v102h45q66 -4 71 90q0 8 -8 10q-9 0 -9 -8q-2 -80 -59 -75h-55q-30 4 -40 24q102 45 164 161q4 9 -3 14q-9 4 -14 -5q-54 -107 -154 -154q-3 12 -3 31v109q0 10 -9 10
t-9 -10v-109q2 -35 4 -38q-42 -17 -126 -29q-9 -2 -7.5 -9t10.5 -7q62 9 130 31q12 -33 55 -36v-102h-123q-21 0 -21 24v64q0 9 -8 10q-9 -1 -9 -10v-69q2 -33 33 -36h275q33 1 35 34v76q0 9 -9 9z" />
    <glyph glyph-name="uniE864" unicode="&#xe864;" 
d="M512 791q-99 0 -190 -38.5t-156.5 -104.5t-104.5 -156.5t-39 -190t39 -190t104.5 -156.5t156.5 -104.5t190 -38.5t190 38.5t156.5 104.5t104.5 156.5t39 190t-39 190t-104.5 156.5t-156.5 104.5t-190 38.5zM512 -144q-90 0 -172.5 35.5t-142.5 95t-95 142t-35 173t35 173
t95 142t142.5 95t172.5 35.5t172.5 -35.5t142.5 -95t95 -142t35 -173t-35 -173t-95 -142t-142.5 -95t-172.5 -35.5zM706 512q-51 0 -87 -39t-36 -94q0 -9 6.5 -15.5t15.5 -6.5t15.5 6.5t6.5 15.5q0 37 23.5 62.5t56 25.5t55.5 -25.5t23 -62.5q0 -9 6.5 -15.5t15.5 -6.5
t16 6.5t7 15.5q0 55 -36.5 94t-87.5 39zM321.5 467q32.5 0 55.5 -25.5t23 -62.5q0 -9 6.5 -15.5t16 -6.5t16 6.5t6.5 15.5q0 55 -36 94t-87 39t-87.5 -39t-36.5 -94q0 -9 6.5 -15.5t16 -6.5t16 6.5t6.5 15.5q0 37 23 62.5t55.5 25.5zM750.5 195.5q-8.5 3.5 -17 0
t-12.5 -12.5q-29 -70 -86 -112.5t-123 -42.5t-123 42.5t-86 112.5q-4 9 -12.5 12.5t-17 0t-12 -12t-0.5 -16.5q34 -84 102.5 -133.5t148.5 -49.5t148.5 49.5t102.5 133.5q3 8 -0.5 16.5t-12 12z" />
    <glyph glyph-name="uniE8BF" unicode="&#xe8bf;" horiz-adv-x="1215" 
d="M712 257q-4 -5 -8 -9q-37 -43 -85 -67q-51 -25 -106.5 -25t-105.5 25q-49 24 -86 67l-8 10q-112 -55 -180 -162.5t-68 -236.5v-1h893v1q0 129 -67.5 236t-178.5 162zM747 468q-1 111 -68 189t-161.5 78t-161.5 -78.5t-67 -189.5t67 -189.5t161.5 -78.5t161.5 78.5
t68 189.5v1z" />
  </font>
</defs>
</svg>
